<svg width="67" height="34" viewBox="0 0 67 34" fill="none" xmlns="http://www.w3.org/2000/svg">
<path d="M7.7472 23.0671L0.692273 27.9586L0.512532 27.6814L7.56749 22.7899L7.57007 22.7882L7.7472 23.0671ZM7.56749 22.7899L7.56685 22.7903L7.57007 22.7882L7.56749 22.7899ZM15.348 18.0109L7.74459 23.0688L7.57007 22.7882L15.1735 17.7302L15.3382 17.7242L15.348 18.0109ZM15.1735 17.7302L15.2542 17.6766L15.3382 17.7242L15.1735 17.7302ZM21.2206 21.4329L15.1833 18.017L15.3382 17.7242L21.3755 21.1401L21.2261 21.4358L21.2206 21.4329ZM21.2261 21.4358L21.2225 21.434L21.2206 21.4329L21.2261 21.4358ZM25.0969 23.4293L21.2261 21.4358L21.37 21.1371L25.2409 23.1306L25.103 23.4322L25.0969 23.4293ZM25.103 23.4322L25.0993 23.4305L25.0969 23.4293L25.103 23.4322ZM32.6663 26.9343L25.103 23.4322L25.2348 23.1277L32.7982 26.6298L32.8367 26.9092L32.6663 26.9343V26.9343ZM32.8367 26.9092L32.7591 26.9773L32.6663 26.9343L32.8367 26.9092ZM38.9125 21.5738L32.8367 26.9092L32.6278 26.6549L38.7036 21.3195L38.7063 21.3171L38.9125 21.5738V21.5738ZM38.7036 21.3195L38.7048 21.3183L38.7063 21.3171L38.7036 21.3195V21.3195ZM56.4212 6.8695L38.9097 21.5762L38.7063 21.3171L56.2178 6.61041L56.4213 6.8695H56.4212ZM60.1305 3.75324L56.4213 6.8695L56.2177 6.61041L59.9269 3.49419L60.1561 3.52131L60.1305 3.75324V3.75324ZM60.1561 3.52131L60.2531 3.65027L60.1305 3.75324L60.1561 3.52131ZM57.7631 0.339299L60.1561 3.52131L59.9013 3.72612L57.5083 0.544104L57.6553 0.276044L57.7631 0.339299ZM57.5083 0.544104L57.2703 0.227539L57.6553 0.276044L57.5083 0.544104ZM66.6302 1.74279L57.6162 0.607391L57.6553 0.276044L66.6693 1.41144L66.8099 1.59817L66.6302 1.74279V1.74279ZM66.6693 1.41144L66.8304 1.43175L66.8099 1.59817L66.6693 1.41144V1.41144ZM65.3433 10.8834L66.4897 1.5561L66.8099 1.59817L65.6635 10.9254L65.3758 11.0065L65.3433 10.8834ZM65.6635 10.9254L65.6144 11.3253L65.3758 11.0065L65.6635 10.9254ZM62.9676 7.24354L65.631 10.8022L65.3758 11.0065L62.7124 7.44787L62.7383 7.21617L62.9676 7.24354V7.24354ZM62.7383 7.21617L62.8665 7.1085L62.9676 7.24354L62.7383 7.21617V7.21617ZM32.755 32.3998L62.7383 7.21617L62.9417 7.47525L32.9584 32.6589L32.7847 32.6787L32.755 32.3998V32.3998ZM32.9584 32.6589L32.8777 32.7266L32.7847 32.6787L32.9584 32.6589V32.6589ZM15.2295 23.2639L32.9287 32.38L32.7847 32.6787L15.0855 23.5626L15.0676 23.2746L15.2295 23.2639V23.2639ZM15.0676 23.2746L15.1455 23.2206L15.2295 23.2639L15.0676 23.2746V23.2746ZM0.512532 33.3665L15.0676 23.2746L15.2474 23.5519L0.692273 33.6438L0.44104 33.5052L0.512532 33.3665ZM0.692273 33.6438L0.44104 33.818V33.5052L0.692273 33.6438ZM0.763764 27.82V33.5052H0.44104V27.82L0.512532 27.6814L0.763764 27.82ZM0.44104 27.82V27.7309L0.512532 27.6814L0.44104 27.82Z" fill="#D4AF37"/>
</svg>
