<svg width="19" height="32" viewBox="0 0 19 32" fill="none" xmlns="http://www.w3.org/2000/svg">
<path d="M18.2893 2.5389C18.8479 1.98023 18.8479 1.07446 18.2893 0.515789C17.7306 -0.042878 16.8248 -0.042878 16.2662 0.515789L18.2893 2.5389ZM2.97215 15.8329L1.9606 14.8213L0.949043 15.8329L1.9606 16.8445L2.97215 15.8329ZM16.2662 31.15C16.8248 31.7087 17.7306 31.7087 18.2893 31.15C18.8479 30.5913 18.8479 29.6856 18.2893 29.1269L16.2662 31.15ZM16.2662 0.515789L1.9606 14.8213L3.98371 16.8445L18.2893 2.5389L16.2662 0.515789ZM1.9606 16.8445L16.2662 31.15L18.2893 29.1269L3.98371 14.8213L1.9606 16.8445Z" fill="#858383"/>
</svg>
