<svg width="19" height="32" viewBox="0 0 19 32" fill="none" xmlns="http://www.w3.org/2000/svg">
<path d="M0.710613 29.1281C0.151946 29.6868 0.151946 30.5925 0.710613 31.1512C1.26928 31.7099 2.17506 31.7099 2.73372 31.1512L0.710613 29.1281ZM16.0277 15.8341L17.0393 16.8456L18.0508 15.8341L17.0393 14.8225L16.0277 15.8341ZM2.73372 0.51698C2.17506 -0.0416861 1.26928 -0.0416861 0.710613 0.51698C0.151946 1.07565 0.151946 1.98142 0.710613 2.54009L2.73372 0.51698ZM2.73372 31.1512L17.0393 16.8456L15.0162 14.8225L0.710613 29.1281L2.73372 31.1512ZM17.0393 14.8225L2.73372 0.51698L0.710613 2.54009L15.0162 16.8456L17.0393 14.8225Z" fill="#858383"/>
</svg>
