<svg width="857" height="133" viewBox="0 0 857 133" fill="none" xmlns="http://www.w3.org/2000/svg">
<path fill-rule="evenodd" clip-rule="evenodd" d="M11.0876 46.9179L21.7583 39.5194V29.3515H42.3901V37.0359L48.2449 40.051V16.4464H68.8743V37.2781L74.729 32.3607V1.00003H95.3607V15.034L100.971 10.3206L97.3515 5.50767L110.948 7.26356L109.252 21.3327L105.213 15.9609L59.8728 54.0407L33.1024 40.2526L11.0876 55.5168V46.9179V46.9179ZM95.3607 31.0746V72.194L86.9335 73.9918C83.9216 74.4827 78.8488 74.6746 76.0059 73.4971C75.5842 73.323 75.1594 73.1713 74.729 73.0407V48.4024L95.3607 31.0746ZM68.8743 53.3197V72.404C67.7024 72.4659 66.5293 72.6225 65.3622 72.8446L62.0272 71.5301C57.8921 69.8998 52.7898 71.2975 48.2449 73.116V54.8905L59.8728 60.8803L68.8743 53.3197V53.3197ZM42.3901 51.8753V75.6547C40.3906 76.3897 37.6733 76.4395 35.7219 75.6966L21.7583 69.2389V54.9573L33.1024 47.0914L42.3901 51.8753ZM33.815 112.072C35.0145 113.313 36.892 116.581 33.0959 118.566C29.2976 120.552 26.7802 117.614 27.1791 115.215C27.8125 111.416 32.201 110.401 33.815 112.072ZM44.2506 119.889C44.2506 119.889 41.6106 124.689 39.573 125.059C37.5337 125.431 34.2163 124.191 34.0162 122.122C33.2233 113.89 46.2278 114.47 44.2506 119.889V119.889ZM52.5828 124.191C52.5828 124.191 48.7458 129.217 47.6853 129.423C46.6272 129.629 42.8705 129.877 42.0698 127.603C41.2699 125.329 42.9098 123.881 43.7895 122.681C44.6688 121.481 47.4858 118.71 49.6044 119.496C51.7224 120.283 54.0216 122.144 52.5828 124.191V124.191ZM54.163 124.667L50.1652 129.113C50.1652 129.113 49.1046 130.209 49.7845 130.789C50.4643 131.368 53.5225 133.726 56.6598 131.161C59.7988 128.595 57.8399 123.57 54.163 124.667V124.667ZM115.923 70.4005L87.374 76.4923C87.374 76.4923 79.6987 77.7626 75.0938 75.8569C70.489 73.9505 64.9633 75.2219 59.4388 77.1272C53.9131 79.0336 48.6936 79.669 45.6236 84.7513C42.5538 89.8338 39.4839 93.9633 41.939 95.2349C44.3966 96.5046 49.3082 95.5517 52.6843 92.0582C56.061 88.5634 57.8815 88.004 59.1308 87.928C60.3801 87.8521 66.5 86.3403 68.9552 89.8338C71.411 93.3279 88.6027 111.753 88.6027 111.753C88.6027 111.753 94.1267 107.305 97.1966 106.352C98.3116 106.007 103.319 104.737 109.389 103.291C113.685 94.952 116.119 85.4305 116.119 75.3203C116.119 73.6641 116.052 72.0235 115.923 70.4005V70.4005Z" fill="#009933" stroke="#D4AF37" stroke-width="0.219073" stroke-miterlimit="10"/>
<path fill-rule="evenodd" clip-rule="evenodd" d="M2.23522 62.9924L34.7912 78.0496C34.7912 78.0496 39.3069 79.8279 43.8238 77.8001C47.5412 76.1323 55.9696 71.8607 61.1527 73.9048C60.3064 74.1616 59.4735 74.4371 58.6612 74.7169C52.793 76.7411 47.1213 77.4784 43.5416 83.4045C42.3404 85.3922 41.0154 87.3696 39.9379 89.4259C38.9573 91.3032 37.9953 93.6605 39.05 95.7318C39.4493 96.5172 40.0775 97.1119 40.8412 97.5071C45.1645 99.7436 51.2492 97.1369 54.4211 93.8547C55.4499 92.7901 57.6753 90.5621 59.2759 90.4643C61.2701 90.343 65.5259 89.2772 66.9682 91.3298C68.0486 92.8647 69.4803 94.4355 70.718 95.8442C72.6692 98.0698 74.6535 100.267 76.6425 102.455C80.0174 106.165 83.4163 109.853 86.8358 113.518L87.9215 114.682C89.1831 115.674 86.5566 121.681 81.9598 117.592L70.6868 105.225C70.6868 105.225 69.7489 104.418 69.2275 104.831C68.7079 105.244 69.2275 105.658 69.7079 106.217L79.3393 117.033C79.3393 117.033 81.7781 119.349 79.5804 122.369C77.3809 125.39 74.5825 123.858 72.8241 122.494L65.228 114.759C65.228 114.759 64.5088 113.931 63.968 114.324C63.968 114.324 63.4884 114.821 64.2679 115.544L72.0019 123.467C72.0019 123.467 73.2816 125.534 71.823 127.457C71.823 127.457 69.8229 130.208 66.8455 127.851C63.8667 125.493 58.4289 119.745 58.4289 119.745C58.4289 119.745 57.3897 118.895 56.9298 119.227C56.4705 119.558 57.2294 120.178 57.5291 120.487C57.8301 120.799 65.3829 128.079 65.3829 128.079C65.3829 128.079 65.9804 129.195 65.001 129.94C64.1253 130.605 61.4854 131.255 60.2255 130.376C61.6866 126.606 59.3926 122.067 55.3865 121.958C54.9801 120.19 53.5191 118.649 51.7882 117.717C51.3507 117.481 50.8966 117.275 50.4339 117.104C49.3788 116.712 48.2708 116.756 47.1969 117.081L46.5048 116.835L46.4379 116.685C45.0267 113.707 41.2495 112.955 38.2723 113.502L37.329 112.981C36.9543 112.033 36.3584 111.11 35.5519 110.275C33.9255 108.592 31.3594 108.423 29.2895 109.204C28.4356 109.527 27.6684 109.997 27.0179 110.588L5.80953 99.1932C2.71561 91.8852 1 83.81 1 75.3203C1 71.0936 1.42637 66.9707 2.23522 62.9924V62.9924Z" fill="#052638" stroke="#D4AF37" stroke-width="0.219073" stroke-miterlimit="10"/>
<path fill-rule="evenodd" clip-rule="evenodd" d="M11.0852 46.9182L21.7559 39.5197L33.2562 31.8695L42.3877 37.0362L48.2424 40.0513L59.6821 45.3483L68.8718 37.2784L95.3583 15.0342L100.968 10.3209L97.3491 5.50803L110.983 7.22539L109.249 21.333L105.221 15.9504L59.8703 54.0412L33.1 40.2529L11.0852 55.5172V46.9182Z" fill="#052638"/>
<path d="M21.894 39.729L11.2233 47.1275L10.9514 46.7081L21.6221 39.3096L21.626 39.3071L21.894 39.729ZM33.3904 32.0814L21.89 39.7316L21.626 39.3071L33.1264 31.6569L33.3755 31.6477L33.3904 32.0814ZM33.1264 31.6569L33.2484 31.5757L33.3755 31.6477L33.1264 31.6569ZM42.2727 37.2572L33.1412 32.0906L33.3755 31.6477L42.507 36.8143L42.281 37.2616L42.2727 37.2572ZM42.281 37.2616L42.2755 37.2589L42.2727 37.2572L42.281 37.2616ZM48.1357 40.2769L42.281 37.2616L42.4987 36.8099L48.3534 39.8251L48.1449 40.2813L48.1357 40.2769ZM48.1449 40.2813L48.1394 40.2787L48.1357 40.2769L48.1449 40.2813ZM59.5845 45.5782L48.1449 40.2813L48.3443 39.8206L59.784 45.1176L59.8423 45.5403L59.5845 45.5782ZM59.8423 45.5403L59.725 45.6432L59.5845 45.5782L59.8423 45.5403ZM69.032 37.4704L59.8423 45.5403L59.5263 45.1555L68.716 37.0856L68.7202 37.0821L69.032 37.4704ZM68.716 37.0856L68.7179 37.0839L68.7202 37.0821L68.716 37.0856ZM95.5143 15.2298L69.0279 37.4739L68.7202 37.0821L95.2066 14.838L95.5143 15.2298ZM101.125 10.5164L95.5143 15.2298L95.2066 14.838L100.817 10.1246L101.163 10.1656L101.125 10.5164ZM101.163 10.1656L101.31 10.3607L101.125 10.5164L101.163 10.1656ZM97.5439 5.35279L101.163 10.1656L100.778 10.4754L97.1586 5.66256L97.3808 5.25711L97.5439 5.35279ZM97.1586 5.66256L96.7985 5.18375L97.3808 5.25711L97.1586 5.66256ZM110.956 7.47559L97.3216 5.75828L97.3808 5.25711L111.015 6.97442L111.227 7.25684L110.956 7.47559ZM111.015 6.97442L111.258 7.00513L111.227 7.25684L111.015 6.97442ZM109.009 21.3009L110.743 7.19322L111.227 7.25684L109.493 21.3645L109.058 21.4872L109.009 21.3009ZM109.493 21.3645L109.419 21.9693L109.058 21.4872L109.493 21.3645ZM105.416 15.7956L109.444 21.1781L109.058 21.4872L105.03 16.1046L105.069 15.7542L105.416 15.7956ZM105.069 15.7542L105.263 15.5913L105.416 15.7956L105.069 15.7542ZM59.7187 53.8449L105.069 15.7542L105.377 16.146L60.0264 54.2367L59.7637 54.2667L59.7187 53.8449ZM60.0264 54.2367L59.9044 54.3391L59.7637 54.2667L60.0264 54.2367ZM33.211 40.0266L59.9814 53.8149L59.7637 54.2667L32.9933 40.4784L32.9662 40.0428L33.211 40.0266ZM32.9662 40.0428L33.084 39.9612L33.211 40.0266L32.9662 40.0428ZM10.9514 55.3071L32.9662 40.0428L33.2381 40.4622L11.2233 55.7264L10.8433 55.5168L10.9514 55.3071ZM11.2233 55.7264L10.8433 55.9899V55.5168L11.2233 55.7264ZM11.3314 46.9178V55.5168H10.8433V46.9178L10.9514 46.7081L11.3314 46.9178ZM10.8433 46.9178V46.7831L10.9514 46.7081L10.8433 46.9178Z" fill="#D4AF37"/>
<path d="M141.681 94.5104V30.5123H166.931C171.785 30.5123 175.92 31.4394 179.337 33.2935C182.753 35.1268 185.357 37.6788 187.149 40.9495C188.961 44.1994 189.868 47.9493 189.868 52.1992C189.868 56.4491 188.951 60.1989 187.118 63.4488C185.284 66.6987 182.628 69.2299 179.149 71.0424C175.691 72.8548 171.503 73.761 166.587 73.761H150.494V62.9176H164.4C167.004 62.9176 169.149 62.4697 170.837 61.5739C172.545 60.6573 173.816 59.3969 174.649 57.7928C175.503 56.1678 175.93 54.3033 175.93 52.1992C175.93 50.0743 175.503 48.2201 174.649 46.6369C173.816 45.0327 172.545 43.7932 170.837 42.9182C169.129 42.0224 166.962 41.5745 164.337 41.5745H155.212V94.5104H141.681ZM201.046 94.5104V46.5119H213.952V54.8866H214.452C215.327 51.9075 216.796 49.6576 218.858 48.1368C220.921 46.5952 223.296 45.8244 225.983 45.8244C226.65 45.8244 227.368 45.866 228.139 45.9494C228.91 46.0327 229.587 46.1473 230.17 46.2931V58.1053C229.545 57.9178 228.681 57.7511 227.577 57.6053C226.473 57.4594 225.462 57.3865 224.546 57.3865C222.587 57.3865 220.837 57.8136 219.296 58.6677C217.775 59.5011 216.567 60.6677 215.671 62.1676C214.796 63.6676 214.358 65.3967 214.358 67.355V94.5104H201.046ZM259.145 95.4479C254.291 95.4479 250.094 94.4167 246.552 92.3542C243.031 90.271 240.313 87.3752 238.396 83.667C236.479 79.9379 235.521 75.6151 235.521 70.6986C235.521 65.7404 236.479 61.4072 238.396 57.699C240.313 53.97 243.031 51.0742 246.552 49.0118C250.094 46.9285 254.291 45.8869 259.145 45.8869C263.999 45.8869 268.187 46.9285 271.708 49.0118C275.249 51.0742 277.978 53.97 279.895 57.699C281.811 61.4072 282.77 65.7404 282.77 70.6986C282.77 75.6151 281.811 79.9379 279.895 83.667C277.978 87.3752 275.249 90.271 271.708 92.3542C268.187 94.4167 263.999 95.4479 259.145 95.4479ZM259.208 85.1357C261.416 85.1357 263.26 84.5107 264.739 83.2607C266.218 81.99 267.333 80.2608 268.083 78.0734C268.853 75.886 269.239 73.3965 269.239 70.6049C269.239 67.8133 268.853 65.3238 268.083 63.1364C267.333 60.9489 266.218 59.2198 264.739 57.949C263.26 56.6782 261.416 56.0428 259.208 56.0428C256.979 56.0428 255.104 56.6782 253.583 57.949C252.083 59.2198 250.948 60.9489 250.177 63.1364C249.427 65.3238 249.052 67.8133 249.052 70.6049C249.052 73.3965 249.427 75.886 250.177 78.0734C250.948 80.2608 252.083 81.99 253.583 83.2607C255.104 84.5107 256.979 85.1357 259.208 85.1357Z" fill="#042233"/>
<path d="M373.744 94.5104V46.5119H387.056V94.5104H373.744ZM380.431 40.3245C378.452 40.3245 376.754 39.6683 375.338 38.3559C373.942 37.0226 373.244 35.4289 373.244 33.5748C373.244 31.7415 373.942 30.1686 375.338 28.8561C376.754 27.5229 378.452 26.8562 380.431 26.8562C382.41 26.8562 384.098 27.5229 385.494 28.8561C386.91 30.1686 387.619 31.7415 387.619 33.5748C387.619 35.4289 386.91 37.0226 385.494 38.3559C384.098 39.6683 382.41 40.3245 380.431 40.3245ZM426.77 46.5119V56.5116H397.865V46.5119H426.77ZM404.427 35.0122H417.739V79.7609C417.739 80.99 417.927 81.9483 418.302 82.6358C418.677 83.3024 419.198 83.7711 419.864 84.042C420.552 84.3128 421.343 84.4482 422.239 84.4482C422.864 84.4482 423.489 84.3961 424.114 84.292C424.739 84.167 425.218 84.0732 425.552 84.0107L427.645 93.9167C426.979 94.125 426.041 94.3646 424.833 94.6354C423.625 94.9271 422.156 95.1041 420.427 95.1666C417.218 95.2916 414.406 94.8646 411.989 93.8854C409.594 92.9063 407.729 91.3855 406.396 89.3231C405.063 87.2606 404.406 84.6565 404.427 81.5108V35.0122ZM438.962 94.5104V46.5119H452.274V94.5104H438.962ZM445.649 40.3245C443.67 40.3245 441.972 39.6683 440.555 38.3559C439.16 37.0226 438.462 35.4289 438.462 33.5748C438.462 31.7415 439.16 30.1686 440.555 28.8561C441.972 27.5229 443.67 26.8562 445.649 26.8562C447.628 26.8562 449.316 27.5229 450.711 28.8561C452.128 30.1686 452.836 31.7415 452.836 33.5748C452.836 35.4289 452.128 37.0226 450.711 38.3559C449.316 39.6683 447.628 40.3245 445.649 40.3245ZM492.269 46.5119V56.5116H462.645V46.5119H492.269ZM469.426 94.5104V43.0432C469.426 39.5642 470.103 36.6788 471.457 34.3872C472.832 32.0956 474.707 30.3769 477.082 29.2311C479.457 28.0853 482.155 27.5124 485.176 27.5124C487.217 27.5124 489.082 27.6687 490.769 27.9812C492.478 28.2937 493.748 28.5749 494.582 28.8249L492.207 38.8246C491.686 38.6579 491.04 38.5017 490.269 38.3559C489.519 38.21 488.748 38.1371 487.957 38.1371C485.999 38.1371 484.634 38.5954 483.863 39.5121C483.092 40.4079 482.707 41.6683 482.707 43.2932V94.5104H469.426ZM512.14 112.51C510.453 112.51 508.869 112.374 507.39 112.104C505.932 111.854 504.724 111.531 503.765 111.135L506.765 101.198C508.328 101.677 509.734 101.937 510.984 101.979C512.255 102.021 513.348 101.729 514.265 101.104C515.203 100.479 515.963 99.4165 516.546 97.9166L517.327 95.8854L500.109 46.5119H514.109L524.046 81.7608H524.546L534.577 46.5119H548.67L530.015 99.6977C529.119 102.281 527.9 104.531 526.358 106.448C524.838 108.385 522.911 109.875 520.577 110.916C518.244 111.979 515.432 112.51 512.14 112.51Z" fill="#042233"/>
<path d="M322.118 46.5119V56.5116H292.494V46.5119H322.118ZM299.275 94.5104V43.0432C299.275 39.5642 299.952 36.6788 301.306 34.3872C302.681 32.0956 304.556 30.3769 306.931 29.2311C309.306 28.0853 312.004 27.5124 315.025 27.5124C317.066 27.5124 318.931 27.6687 320.618 27.9812C322.327 28.2937 323.597 28.5749 324.431 28.8249L322.056 38.8246C321.535 38.6579 320.889 38.5017 320.118 38.3559C319.368 38.21 318.597 38.1371 317.806 38.1371C315.848 38.1371 314.483 38.5954 313.712 39.5121C312.941 40.4079 312.556 41.6683 312.556 43.2932V94.5104H299.275ZM359.582 46.5119V56.5116H329.958V46.5119H359.582ZM336.739 94.5104V43.0432C336.739 39.5642 337.416 36.6788 338.771 34.3872C340.145 32.0956 342.02 30.3769 344.395 29.2311C346.77 28.0853 349.468 27.5124 352.489 27.5124C354.53 27.5124 356.395 27.6687 358.082 27.9812C359.791 28.2937 361.061 28.5749 361.895 28.8249L359.52 38.8246C358.999 38.6579 358.353 38.5017 357.582 38.3559C356.832 38.21 356.062 38.1371 355.27 38.1371C353.312 38.1371 351.947 38.5954 351.176 39.5121C350.406 40.4079 350.02 41.6683 350.02 43.2932V94.5104H336.739Z" fill="#009933"/>
<path d="M582.056 94.7363V30.7383H607.306C612.139 30.7383 616.264 31.6028 619.68 33.3319C623.118 35.0402 625.732 37.4672 627.524 40.613C629.336 43.7379 630.243 47.4148 630.243 51.6439C630.243 55.8938 629.326 59.5499 627.493 62.6123C625.659 65.6539 623.003 67.9871 619.524 69.6121C616.066 71.237 611.878 72.0495 606.962 72.0495H590.056V61.1748H604.775C607.358 61.1748 609.504 60.8207 611.212 60.1124C612.92 59.4041 614.191 58.3416 615.024 56.925C615.878 55.5084 616.305 53.748 616.305 51.6439C616.305 49.5189 615.878 47.7273 615.024 46.269C614.191 44.8108 612.91 43.7066 611.181 42.9566C609.472 42.1858 607.316 41.8004 604.712 41.8004H595.587V94.7363H582.056ZM616.618 65.6122L632.524 94.7363H617.587L602.025 65.6122H616.618ZM663.296 95.6738C658.358 95.6738 654.108 94.6738 650.546 92.6739C647.004 90.6531 644.275 87.799 642.359 84.1117C640.442 80.4034 639.484 76.0181 639.484 70.9558C639.484 66.0184 640.442 61.6852 642.359 57.9562C644.275 54.2271 646.973 51.321 650.452 49.2377C653.952 47.1544 658.056 46.1128 662.764 46.1128C665.931 46.1128 668.879 46.6232 671.608 47.644C674.358 48.644 676.753 50.1543 678.795 52.1751C680.858 54.1959 682.462 56.7375 683.607 59.7999C684.753 62.8415 685.326 66.4039 685.326 70.4871V74.1432H644.796V65.8935H672.795C672.795 63.9768 672.379 62.279 671.545 60.7999C670.712 59.3207 669.556 58.1645 668.077 57.3312C666.618 56.4771 664.921 56.05 662.983 56.05C660.962 56.05 659.171 56.5187 657.608 57.4562C656.067 58.3728 654.858 59.6124 653.983 61.1748C653.108 62.7165 652.66 64.4352 652.64 66.3309V74.1745C652.64 76.5494 653.077 78.6014 653.952 80.3305C654.848 82.0596 656.108 83.3929 657.733 84.3304C659.358 85.2679 661.285 85.7366 663.514 85.7366C664.993 85.7366 666.348 85.5283 667.577 85.1116C668.806 84.695 669.858 84.07 670.733 83.2367C671.608 82.4034 672.274 81.3826 672.733 80.1743L685.045 80.9867C684.42 83.945 683.139 86.5282 681.201 88.7365C679.285 90.9239 676.806 92.6322 673.764 93.8614C670.743 95.0697 667.254 95.6738 663.296 95.6738ZM722.184 46.7378V56.7375H693.278V46.7378H722.184ZM699.841 35.2381H713.153V79.9868C713.153 81.2159 713.34 82.1742 713.715 82.8617C714.09 83.5283 714.611 83.9971 715.278 84.2679C715.965 84.5387 716.757 84.6741 717.653 84.6741C718.278 84.6741 718.903 84.6221 719.528 84.5179C720.153 84.3929 720.632 84.2991 720.965 84.2366L723.059 94.1426C722.392 94.3509 721.455 94.5905 720.246 94.8613C719.038 95.153 717.569 95.3301 715.84 95.3926C712.632 95.5176 709.82 95.0905 707.403 94.1113C705.007 93.1322 703.143 91.6114 701.809 89.549C700.476 87.4865 699.82 84.8825 699.841 81.7367V35.2381ZM747.182 95.6426C744.12 95.6426 741.391 95.1113 738.995 94.0488C736.599 92.9655 734.704 91.3718 733.308 89.2677C731.933 87.1428 731.245 84.4971 731.245 81.3305C731.245 78.6639 731.735 76.4244 732.714 74.6119C733.693 72.7995 735.027 71.3412 736.714 70.2371C738.401 69.1329 740.318 68.2996 742.464 67.7371C744.63 67.1747 746.901 66.7788 749.276 66.5497C752.068 66.258 754.318 65.9872 756.026 65.7372C757.734 65.4664 758.974 65.0706 759.745 64.5497C760.515 64.0289 760.901 63.2581 760.901 62.2373V62.0498C760.901 60.0707 760.276 58.5395 759.026 57.4562C757.797 56.3729 756.047 55.8313 753.776 55.8313C751.38 55.8313 749.474 56.3625 748.057 57.425C746.641 58.4666 745.703 59.7791 745.245 61.3623L732.933 60.3624C733.558 57.4458 734.787 54.925 736.62 52.8001C738.454 50.6543 740.818 49.0085 743.714 47.8627C746.63 46.6961 750.005 46.1128 753.838 46.1128C756.505 46.1128 759.057 46.4253 761.494 47.0503C763.953 47.6753 766.13 48.644 768.026 49.9564C769.942 51.2689 771.453 52.9563 772.557 55.0188C773.661 57.0604 774.213 59.5082 774.213 62.3623V94.7363H761.588V88.0803H761.213C760.442 89.5802 759.411 90.9031 758.12 92.0489C756.828 93.1739 755.276 94.0593 753.463 94.7051C751.651 95.3301 749.557 95.6426 747.182 95.6426ZM750.995 86.4553C752.953 86.4553 754.682 86.0699 756.182 85.2991C757.682 84.5075 758.859 83.445 759.713 82.1117C760.567 80.7784 760.994 79.268 760.994 77.5806V72.487C760.578 72.7578 760.005 73.0078 759.276 73.237C758.567 73.4453 757.765 73.6432 756.87 73.8307C755.974 73.9974 755.078 74.1536 754.182 74.2994C753.286 74.4244 752.474 74.539 751.745 74.6432C750.182 74.8723 748.818 75.2369 747.651 75.7369C746.485 76.2369 745.578 76.914 744.932 77.7681C744.287 78.6014 743.964 79.643 743.964 80.893C743.964 82.7054 744.62 84.0908 745.932 85.0491C747.266 85.9866 748.953 86.4553 750.995 86.4553ZM787.181 94.7363V46.7378H800.493V94.7363H787.181ZM793.868 40.5505C791.889 40.5505 790.191 39.8942 788.774 38.5818C787.378 37.2485 786.681 35.6548 786.681 33.8007C786.681 31.9674 787.378 30.3945 788.774 29.0821C790.191 27.7488 791.889 27.0821 793.868 27.0821C795.847 27.0821 797.534 27.7488 798.93 29.0821C800.347 30.3945 801.055 31.9674 801.055 33.8007C801.055 35.6548 800.347 37.2485 798.93 38.5818C797.534 39.8942 795.847 40.5505 793.868 40.5505ZM827.108 30.7383V94.7363H813.796V30.7383H827.108Z" fill="#042233"/>
</svg>
