<svg width="1182" height="435" viewBox="0 0 1182 435" fill="none" xmlns="http://www.w3.org/2000/svg">
<path fill-rule="evenodd" clip-rule="evenodd" d="M34.3005 152.581L69.526 128.158V94.5923H137.634V119.959L156.962 129.913V51.9907H225.062V120.759L244.39 104.526V1.00002H312.498V47.3279L331.018 31.7686L319.07 15.8804L363.955 21.6768L358.353 68.1211L345.021 50.3878L195.347 176.095L106.975 130.578L34.3005 180.967V152.581V152.581ZM312.498 100.28V236.021L284.678 241.956C274.736 243.577 257.99 244.21 248.605 240.323C247.213 239.748 245.811 239.247 244.39 238.816V157.482L312.498 100.28ZM225.062 173.714V236.714C221.194 236.919 217.321 237.436 213.468 238.169L202.459 233.829C188.809 228.448 171.965 233.062 156.962 239.065V178.9L195.347 198.673L225.062 173.714V173.714ZM137.634 168.946V247.445C131.034 249.872 122.063 250.036 115.622 247.584L69.526 226.266V179.12L106.975 153.154L137.634 168.946ZM109.327 367.663C113.287 371.76 119.484 382.547 106.953 389.103C94.4142 395.656 86.104 385.957 87.4207 378.039C89.5117 365.499 103.999 362.149 109.327 367.663ZM143.776 393.469C143.776 393.469 135.061 409.313 128.335 410.535C121.603 411.763 110.651 407.672 109.991 400.842C107.373 373.666 150.303 375.581 143.776 393.469V393.469ZM171.282 407.672C171.282 407.672 158.615 424.261 155.115 424.942C151.622 425.624 139.22 426.441 136.577 418.934C133.936 411.429 139.35 406.648 142.254 402.687C145.157 398.724 154.456 389.578 161.45 392.171C168.442 394.769 176.032 400.912 171.282 407.672V407.672ZM176.498 409.241L163.301 423.919C163.301 423.919 159.8 427.535 162.044 429.451C164.288 431.362 174.384 439.146 184.741 430.681C195.103 422.21 188.636 405.62 176.498 409.241V409.241ZM380.378 230.101L286.133 250.21C286.133 250.21 260.795 254.404 245.594 248.113C230.393 241.82 212.152 246.017 193.915 252.306C175.673 258.599 158.443 260.697 148.309 277.475C138.175 294.253 128.04 307.885 136.145 312.082C144.258 316.274 160.472 313.128 171.617 301.596C182.764 290.059 188.774 288.212 192.898 287.961C197.022 287.711 217.224 282.72 225.33 294.253C233.436 305.787 290.189 366.611 290.189 366.611C290.189 366.611 308.424 351.927 318.558 348.781C322.239 347.641 338.77 343.45 358.808 338.678C372.987 311.148 381.024 279.717 381.024 246.342C381.024 240.874 380.804 235.458 380.378 230.101V230.101Z" fill="#009933" stroke="#D4AF37" stroke-width="0.723192" stroke-miterlimit="10"/>
<path fill-rule="evenodd" clip-rule="evenodd" d="M5.07764 205.645L112.549 255.351C112.549 255.351 127.456 261.222 142.367 254.528C154.639 249.022 182.462 234.921 199.572 241.669C196.779 242.516 194.029 243.426 191.348 244.35C171.976 251.032 153.253 253.466 141.436 273.029C137.47 279.59 133.096 286.118 129.54 292.906C126.302 299.103 123.127 306.885 126.608 313.723C127.927 316.315 130 318.279 132.521 319.583C146.793 326.966 166.88 318.361 177.35 307.526C180.747 304.012 188.093 296.657 193.377 296.334C199.96 295.933 214.009 292.415 218.77 299.191C222.337 304.258 227.063 309.443 231.149 314.094C237.59 321.441 244.14 328.695 250.706 335.918C261.847 348.164 273.067 360.338 284.356 372.437L287.94 376.28C292.104 379.556 283.434 399.383 268.26 385.885L231.046 345.06C231.046 345.06 227.95 342.398 226.228 343.76C224.513 345.125 226.228 346.489 227.814 348.334L259.609 384.04C259.609 384.04 267.66 391.687 260.405 401.657C253.144 411.629 243.906 406.571 238.101 402.07L213.025 376.534C213.025 376.534 210.651 373.799 208.866 375.098C208.866 375.098 207.283 376.739 209.856 379.125L235.387 405.28C235.387 405.28 239.612 412.104 234.796 418.453C234.796 418.453 228.194 427.535 218.365 419.751C208.532 411.969 190.581 392.994 190.581 392.994C190.581 392.994 187.15 390.189 185.632 391.283C184.116 392.377 186.621 394.422 187.61 395.444C188.604 396.472 213.537 420.505 213.537 420.505C213.537 420.505 215.509 424.189 212.276 426.647C209.385 428.845 200.671 430.991 196.512 428.088C201.335 415.642 193.762 400.659 180.537 400.301C179.196 394.462 174.373 389.377 168.659 386.297C167.215 385.52 165.716 384.839 164.188 384.276C160.705 382.982 157.047 383.128 153.502 384.198L151.218 383.389L150.997 382.894C146.338 373.06 133.869 370.578 124.041 372.383L120.927 370.666C119.69 367.534 117.723 364.489 115.061 361.732C109.691 356.176 101.221 355.617 94.3877 358.198C91.5686 359.263 89.0361 360.814 86.8888 362.766L16.8769 325.149C6.66348 301.024 1 274.367 1 246.341C1 232.388 2.40751 218.778 5.07764 205.645V205.645Z" fill="#052638" stroke="#D4AF37" stroke-width="0.723192" stroke-miterlimit="10"/>
<path fill-rule="evenodd" clip-rule="evenodd" d="M34.2925 152.582L69.518 128.159L107.482 102.905L137.626 119.96L156.954 129.914L194.718 147.4L225.054 120.76L312.49 47.3288L331.01 31.7694L319.062 15.8815L364.069 21.5507L358.345 68.122L345.047 50.3533L195.339 176.096L106.967 130.579L34.2925 180.969V152.582Z" fill="#052638"/>
<path d="M69.9738 128.85L34.7484 153.273L33.8509 151.889L69.0765 127.465L69.0894 127.457L69.9738 128.85ZM107.925 103.604L69.9608 128.858L69.0894 127.457L107.054 102.203L107.876 102.172L107.925 103.604ZM107.054 102.203L107.456 101.934L107.876 102.172L107.054 102.203ZM137.247 120.69L107.103 103.634L107.876 102.172L138.02 119.228L137.274 120.705L137.247 120.69ZM137.274 120.705L137.256 120.695L137.247 120.69L137.274 120.705ZM156.602 130.658L137.274 120.705L137.993 119.213L157.32 129.167L156.632 130.673L156.602 130.658ZM156.632 130.673L156.614 130.664L156.602 130.658L156.632 130.673ZM194.396 148.159L156.632 130.673L157.29 129.152L195.054 146.638L195.246 148.033L194.396 148.159ZM195.246 148.033L194.859 148.373L194.396 148.159L195.246 148.033ZM225.583 121.394L195.246 148.033L194.203 146.763L224.54 120.124L224.554 120.112L225.583 121.394ZM224.54 120.124L224.546 120.118L224.554 120.112L224.54 120.124ZM313.005 47.9745L225.569 121.405L224.554 120.112L311.989 46.6809L313.005 47.9745ZM331.525 32.4149L313.005 47.9745L311.989 46.6809L330.509 31.1215L331.653 31.2569L331.525 32.4149ZM331.653 31.2569L332.137 31.9008L331.525 32.4149L331.653 31.2569ZM319.705 15.369L331.653 31.2569L330.381 32.2795L318.433 16.3916L319.166 15.0532L319.705 15.369ZM318.433 16.3916L317.244 14.811L319.166 15.0532L318.433 16.3916ZM363.979 22.3767L318.971 16.7076L319.166 15.0532L364.174 20.7223L364.876 21.6546L363.979 22.3767ZM364.174 20.7223L364.978 20.8236L364.876 21.6546L364.174 20.7223ZM357.553 68.0158L363.277 21.4445L364.876 21.6546L359.152 68.2258L357.715 68.6308L357.553 68.0158ZM359.152 68.2258L358.906 70.2224L357.715 68.6308L359.152 68.2258ZM345.691 49.8421L358.989 67.6106L357.715 68.6308L344.417 50.8623L344.546 49.7054L345.691 49.8421ZM344.546 49.7054L345.186 49.1678L345.691 49.8421L344.546 49.7054ZM194.839 175.448L344.546 49.7054L345.562 50.999L195.854 176.742L194.987 176.841L194.839 175.448ZM195.854 176.742L195.451 177.08L194.987 176.841L195.854 176.742ZM107.333 129.832L195.706 175.349L194.987 176.841L106.614 131.324L106.525 129.886L107.333 129.832ZM106.525 129.886L106.914 129.616L107.333 129.832L106.525 129.886ZM33.8509 180.275L106.525 129.886L107.422 131.27L34.7484 181.659L33.494 180.967L33.8509 180.275ZM34.7484 181.659L33.494 182.529V180.967L34.7484 181.659ZM35.1053 152.581V180.967H33.494V152.581L33.8509 151.889L35.1053 152.581ZM33.494 152.581V152.136L33.8509 151.889L33.494 152.581Z" fill="#D4AF37"/>
<path d="M424.195 269.376V152.481H470.314C479.18 152.481 486.734 154.174 492.974 157.561C499.215 160.909 503.971 165.571 507.244 171.545C510.554 177.481 512.209 184.33 512.209 192.093C512.209 199.855 510.535 206.705 507.187 212.641C503.838 218.577 498.986 223.2 492.632 226.511C486.315 229.821 478.667 231.477 469.686 231.477H440.291V211.671H465.691C470.448 211.671 474.367 210.852 477.449 209.216C480.569 207.542 482.89 205.24 484.413 202.31C485.973 199.342 486.753 195.936 486.753 192.093C486.753 188.212 485.973 184.825 484.413 181.933C482.89 179.003 480.569 176.739 477.449 175.141C474.329 173.505 470.371 172.686 465.577 172.686H448.91V269.376H424.195ZM532.628 269.376V181.705H556.201V197.002H557.114C558.712 191.56 561.395 187.451 565.162 184.673C568.929 181.857 573.267 180.449 578.176 180.449C579.394 180.449 580.706 180.525 582.114 180.677C583.522 180.83 584.759 181.039 585.824 181.305V202.881C584.683 202.538 583.104 202.234 581.087 201.967C579.07 201.701 577.225 201.568 575.55 201.568C571.974 201.568 568.777 202.348 565.961 203.908C563.184 205.43 560.977 207.561 559.34 210.301C557.742 213.04 556.943 216.199 556.943 219.776V269.376H532.628ZM638.749 271.089C629.883 271.089 622.215 269.205 615.746 265.438C609.316 261.633 604.35 256.344 600.849 249.57C597.348 242.759 595.598 234.863 595.598 225.883C595.598 216.827 597.348 208.912 600.849 202.139C604.35 195.327 609.316 190.038 615.746 186.271C622.215 182.466 629.883 180.563 638.749 180.563C647.615 180.563 655.263 182.466 661.694 186.271C668.163 190.038 673.148 195.327 676.648 202.139C680.149 208.912 681.9 216.827 681.9 225.883C681.9 234.863 680.149 242.759 676.648 249.57C673.148 256.344 668.163 261.633 661.694 265.438C655.263 269.205 647.615 271.089 638.749 271.089ZM638.863 252.253C642.896 252.253 646.264 251.111 648.966 248.828C651.667 246.507 653.703 243.349 655.073 239.353C656.481 235.358 657.185 230.811 657.185 225.712C657.185 220.613 656.481 216.066 655.073 212.07C653.703 208.075 651.667 204.916 648.966 202.595C646.264 200.274 642.896 199.113 638.863 199.113C634.791 199.113 631.367 200.274 628.589 202.595C625.849 204.916 623.775 208.075 622.367 212.07C620.997 216.066 620.313 220.613 620.313 225.712C620.313 230.811 620.997 235.358 622.367 239.353C623.775 243.349 625.849 246.507 628.589 248.828C631.367 251.111 634.791 252.253 638.863 252.253Z" fill="#042233"/>
<path d="M848.068 269.376V181.705H872.383V269.376H848.068ZM860.283 170.403C856.668 170.403 853.567 169.205 850.979 166.807C848.43 164.372 847.155 161.461 847.155 158.075C847.155 154.726 848.43 151.853 850.979 149.456C853.567 147.02 856.668 145.803 860.283 145.803C863.898 145.803 866.98 147.02 869.529 149.456C872.117 151.853 873.411 154.726 873.411 158.075C873.411 161.461 872.117 164.372 869.529 166.807C866.98 169.205 863.898 170.403 860.283 170.403ZM944.923 181.705V199.97H892.126V181.705H944.923ZM904.112 160.7H928.428V242.436C928.428 244.681 928.77 246.431 929.455 247.687C930.14 248.904 931.091 249.761 932.309 250.255C933.565 250.75 935.01 250.997 936.647 250.997C937.788 250.997 938.93 250.902 940.071 250.712C941.213 250.484 942.088 250.312 942.697 250.198L946.521 268.292C945.304 268.672 943.591 269.11 941.384 269.605C939.177 270.137 936.495 270.461 933.336 270.575C927.476 270.803 922.339 270.023 917.925 268.235C913.549 266.446 910.144 263.669 907.708 259.901C905.273 256.134 904.074 251.378 904.112 245.632V160.7ZM967.191 269.376V181.705H991.507V269.376H967.191ZM979.406 170.403C975.791 170.403 972.69 169.205 970.102 166.807C967.553 164.372 966.278 161.461 966.278 158.075C966.278 154.726 967.553 151.853 970.102 149.456C972.69 147.02 975.791 145.803 979.406 145.803C983.021 145.803 986.103 147.02 988.653 149.456C991.24 151.853 992.534 154.726 992.534 158.075C992.534 161.461 991.24 164.372 988.653 166.807C986.103 169.205 983.021 170.403 979.406 170.403ZM1064.56 181.705V199.97H1010.45V181.705H1064.56ZM1022.84 269.376V175.369C1022.84 169.014 1024.07 163.744 1026.55 159.559C1029.06 155.373 1032.48 152.234 1036.82 150.141C1041.16 148.048 1046.09 147.001 1051.6 147.001C1055.33 147.001 1058.74 147.287 1061.82 147.858C1064.94 148.428 1067.26 148.942 1068.78 149.399L1064.45 167.664C1063.49 167.359 1062.31 167.074 1060.91 166.807C1059.54 166.541 1058.13 166.408 1056.68 166.408C1053.11 166.408 1050.61 167.245 1049.21 168.919C1047.8 170.556 1047.09 172.858 1047.09 175.826V269.376H1022.84ZM1100.86 302.253C1097.77 302.253 1094.88 302.006 1092.18 301.511C1089.52 301.054 1087.31 300.465 1085.56 299.742L1091.04 281.591C1093.89 282.466 1096.46 282.942 1098.74 283.018C1101.06 283.094 1103.06 282.561 1104.74 281.42C1106.45 280.278 1107.84 278.338 1108.9 275.598L1110.33 271.888L1078.88 181.705H1104.45L1122.6 246.089H1123.51L1141.84 181.705H1167.58L1133.5 278.851C1131.87 283.57 1129.64 287.679 1126.83 291.18C1124.05 294.719 1120.53 297.44 1116.27 299.342C1112 301.283 1106.87 302.253 1100.86 302.253Z" fill="#042233"/>
<path d="M753.771 181.705V199.97H699.661V181.705H753.771ZM712.047 269.376V175.369C712.047 169.014 713.284 163.744 715.757 159.559C718.269 155.373 721.694 152.234 726.031 150.141C730.369 148.048 735.297 147.001 740.815 147.001C744.544 147.001 747.949 147.287 751.032 147.858C754.152 148.428 756.473 148.942 757.995 149.399L753.657 167.664C752.706 167.359 751.526 167.074 750.118 166.807C748.748 166.541 747.34 166.408 745.895 166.408C742.318 166.408 739.825 167.245 738.417 168.919C737.009 170.556 736.305 172.858 736.305 175.826V269.376H712.047ZM822.201 181.705V199.97H768.092V181.705H822.201ZM780.477 269.376V175.369C780.477 169.014 781.714 163.744 784.187 159.559C786.699 155.373 790.124 152.234 794.461 150.141C798.799 148.048 803.727 147.001 809.245 147.001C812.974 147.001 816.379 147.287 819.462 147.858C822.582 148.428 824.903 148.942 826.425 149.399L822.087 167.664C821.136 167.359 819.956 167.074 818.548 166.807C817.178 166.541 815.771 166.408 814.325 166.408C810.748 166.408 808.255 167.245 806.847 168.919C805.439 170.556 804.735 172.858 804.735 175.826V269.376H780.477Z" fill="#009933"/>
</svg>
