<svg width="163" height="49" viewBox="0 0 163 49" fill="none" xmlns="http://www.w3.org/2000/svg">
<path fill-rule="evenodd" clip-rule="evenodd" d="M4.6803 17.7526L8.57339 15.0534V11.3437H16.1007V14.1473L18.2367 15.2473V6.63546H25.7632V14.2357L27.8992 12.4416V1H35.4264V6.12013L37.4733 4.40052L36.1528 2.64456L41.1134 3.28518L40.4944 8.41818L39.0208 6.4583L22.479 20.3513L12.7122 15.3209L4.6803 20.8899V17.7526V17.7526ZM35.4264 11.9724V26.9744L32.3519 27.6303C31.253 27.8094 29.4022 27.8794 28.3651 27.4498C28.2112 27.3863 28.0562 27.3309 27.8992 27.2833V18.2943L35.4264 11.9724ZM25.7632 20.0883V27.051C25.3356 27.0736 24.9076 27.1307 24.4818 27.2117L23.2651 26.7321C21.7564 26.1374 19.8949 26.6473 18.2367 27.3107V20.6614L22.479 22.8467L25.7632 20.0883V20.0883ZM16.1007 19.5613V28.237C15.3712 28.5051 14.3798 28.5233 13.6678 28.2522L8.57339 25.8962V20.6857L12.7122 17.816L16.1007 19.5613ZM12.9721 41.5233C13.4098 41.9761 14.0947 43.1683 12.7098 43.8928C11.324 44.6171 10.4056 43.5452 10.5511 42.6701C10.7822 41.2842 12.3833 40.9139 12.9721 41.5233ZM16.7794 44.3754C16.7794 44.3754 15.8163 46.1264 15.0729 46.2615C14.3289 46.3973 13.1185 45.9451 13.0456 45.1902C12.7563 42.1867 17.5008 42.3984 16.7794 44.3754V44.3754ZM19.8194 45.9451C19.8194 45.9451 18.4195 47.7785 18.0326 47.8538C17.6465 47.9291 16.2759 48.0194 15.9838 47.1898C15.692 46.3603 16.2903 45.8319 16.6112 45.3942C16.932 44.9562 17.9598 43.9453 18.7327 44.2319C19.5055 44.5191 20.3443 45.198 19.8194 45.9451V45.9451ZM20.3959 46.1185L18.9373 47.7407C18.9373 47.7407 18.5504 48.1403 18.7984 48.3521C19.0465 48.5633 20.1622 49.4236 21.3068 48.488C22.4521 47.5518 21.7374 45.7183 20.3959 46.1185V46.1185ZM42.9285 26.32L32.5126 28.5426C32.5126 28.5426 29.7123 29.006 28.0323 28.3107C26.3523 27.6152 24.3363 28.0791 22.3207 28.7742C20.3047 29.4697 18.4004 29.7015 17.2804 31.5558C16.1604 33.4101 15.0404 34.9167 15.9361 35.3806C16.8327 35.8438 18.6247 35.4962 19.8564 34.2216C21.0883 32.9466 21.7526 32.7425 22.2083 32.7148C22.6642 32.6871 24.8969 32.1355 25.7927 33.4101C26.6886 34.6848 32.9609 41.4071 32.9609 41.4071C32.9609 41.4071 34.9762 39.7842 36.0962 39.4366C36.503 39.3105 38.3301 38.8473 40.5446 38.3199C42.1117 35.2774 42.9999 31.8036 42.9999 28.115C42.9999 27.5107 42.9756 26.9122 42.9285 26.32V26.32Z" fill="#009933" stroke="#D4AF37" stroke-width="0.0799266" stroke-miterlimit="10"/>
<path fill-rule="evenodd" clip-rule="evenodd" d="M1.45066 23.6173L13.3284 29.1108C13.3284 29.1108 14.9759 29.7596 16.6238 29.0198C17.9801 28.4113 21.0551 26.8528 22.9461 27.5986C22.6373 27.6923 22.3334 27.7928 22.0371 27.8949C19.8961 28.6334 17.8269 28.9024 16.5209 31.0645C16.0826 31.7896 15.5992 32.5111 15.2061 33.2613C14.8483 33.9462 14.4974 34.8062 14.8821 35.5619C15.0278 35.8485 15.257 36.0655 15.5356 36.2096C17.113 37.0256 19.3329 36.0746 20.4901 34.8771C20.8655 34.4887 21.6774 33.6758 22.2613 33.6402C22.9889 33.5959 24.5416 33.207 25.0678 33.9559C25.462 34.5159 25.9843 35.089 26.4359 35.6029C27.1478 36.4149 27.8717 37.2167 28.5974 38.015C29.8287 39.3684 31.0687 40.7138 32.3163 42.051L32.7124 42.4757C33.1727 42.8378 32.2144 45.0291 30.5373 43.5373L26.4245 39.0254C26.4245 39.0254 26.0823 38.7311 25.8921 38.8817C25.7025 39.0325 25.8921 39.1832 26.0674 39.3872L29.5813 43.3333C29.5813 43.3333 30.471 44.1785 29.6692 45.2804C28.8668 46.3824 27.8458 45.8235 27.2043 45.326L24.4329 42.5038C24.4329 42.5038 24.1705 42.2016 23.9732 42.3451C23.9732 42.3451 23.7982 42.5264 24.0826 42.7901L26.9043 45.6807C26.9043 45.6807 27.3712 46.4349 26.839 47.1366C26.839 47.1366 26.1093 48.1404 25.0231 47.2801C23.9362 46.4201 21.9523 44.3229 21.9523 44.3229C21.9523 44.3229 21.5732 44.0129 21.4054 44.1338C21.2378 44.2547 21.5147 44.4808 21.6241 44.5937C21.7338 44.7073 24.4894 47.3634 24.4894 47.3634C24.4894 47.3634 24.7074 47.7706 24.3501 48.0423C24.0306 48.2852 23.0674 48.5223 22.6078 48.2015C23.1408 46.826 22.3039 45.1701 20.8423 45.1305C20.6941 44.4852 20.161 43.9232 19.5296 43.5829C19.3699 43.4969 19.2043 43.4217 19.0354 43.3595C18.6505 43.2164 18.2462 43.2326 17.8544 43.3508L17.6019 43.2614L17.5775 43.2067C17.0627 42.1199 15.6846 41.8455 14.5984 42.0451L14.2543 41.8553C14.1175 41.5092 13.9001 41.1726 13.6059 40.8679C13.0125 40.2539 12.0763 40.1921 11.3211 40.4773C11.0096 40.5951 10.7297 40.7665 10.4924 40.9822L2.75471 36.8248C1.62592 34.1585 1 31.2124 1 28.115C1 26.5729 1.15556 25.0688 1.45066 23.6173V23.6173Z" fill="#052638" stroke="#D4AF37" stroke-width="0.0799266" stroke-miterlimit="10"/>
<path fill-rule="evenodd" clip-rule="evenodd" d="M4.67944 17.7528L8.57254 15.0536L12.7683 12.2625L16.0998 14.1475L18.2359 15.2475L22.4095 17.1801L25.7623 14.2359L35.4256 6.12031L37.4724 4.4007L36.1519 2.64478L41.1261 3.27134L40.4935 8.41836L39.0238 6.45458L22.4782 20.3516L12.7113 15.3211L4.67944 20.8901V17.7528Z" fill="#052638"/>
<path d="M8.62292 15.13L4.72982 17.8292L4.63064 17.6762L8.52375 14.977L8.52517 14.976L8.62292 15.13ZM12.8173 12.3398L8.62148 15.1309L8.52517 14.976L12.7209 12.1849L12.8118 12.1816L12.8173 12.3398ZM12.7209 12.1849L12.7655 12.1553L12.8118 12.1816L12.7209 12.1849ZM16.0579 14.2282L12.7264 12.3432L12.8118 12.1816L16.1434 14.0666L16.0609 14.2298L16.0579 14.2282ZM16.0609 14.2298L16.0589 14.2288L16.0579 14.2282L16.0609 14.2298ZM18.1969 15.3298L16.0609 14.2298L16.1403 14.065L18.2764 15.165L18.2003 15.3314L18.1969 15.3298ZM18.2003 15.3314L18.1983 15.3305L18.1969 15.3298L18.2003 15.3314ZM22.3739 17.264L18.2003 15.3314L18.273 15.1634L22.4467 17.0959L22.468 17.2501L22.3739 17.264ZM22.468 17.2501L22.4252 17.2877L22.3739 17.264L22.468 17.2501ZM25.8207 14.3059L22.468 17.2501L22.3527 17.1098L25.7054 14.1656L25.707 14.1643L25.8207 14.3059ZM25.7054 14.1656L25.7061 14.1649L25.707 14.1643L25.7054 14.1656ZM35.4825 6.19169L25.8192 14.3072L25.707 14.1643L35.3702 6.04873L35.4825 6.19169ZM37.5294 4.47206L35.4825 6.19169L35.3702 6.04873L37.417 4.32911L37.5435 4.34408L37.5294 4.47206ZM37.5435 4.34408L37.597 4.41524L37.5294 4.47206L37.5435 4.34408ZM36.223 2.58816L37.5435 4.34408L37.4029 4.4571L36.0824 2.70118L36.1635 2.55326L36.223 2.58816ZM36.0824 2.70118L35.951 2.52649L36.1635 2.55326L36.0824 2.70118ZM41.1161 3.36265L36.1419 2.7361L36.1635 2.55326L41.1377 3.1798L41.2152 3.28284L41.1161 3.36265ZM41.1377 3.1798L41.2265 3.191L41.2152 3.28284L41.1377 3.1798ZM40.4059 8.40664L41.0385 3.25962L41.2152 3.28284L40.5826 8.42986L40.4239 8.47462L40.4059 8.40664ZM40.5826 8.42986L40.5555 8.65052L40.4239 8.47462L40.5826 8.42986ZM39.095 6.3981L40.5647 8.36187L40.4239 8.47462L38.9541 6.51086L38.9684 6.383L39.095 6.3981ZM38.9684 6.383L39.0392 6.32358L39.095 6.3981L38.9684 6.383ZM22.4229 20.28L38.9684 6.383L39.0807 6.52596L22.5351 20.4229L22.4393 20.4339L22.4229 20.28ZM22.5351 20.4229L22.4906 20.4603L22.4393 20.4339L22.5351 20.4229ZM12.7518 15.2385L22.5187 20.269L22.4393 20.4339L12.6724 15.4034L12.6625 15.2445L12.7518 15.2385ZM12.6625 15.2445L12.7055 15.2147L12.7518 15.2385L12.6625 15.2445ZM4.63064 20.8135L12.6625 15.2445L12.7617 15.3975L4.72982 20.9665L4.59119 20.89L4.63064 20.8135ZM4.72982 20.9665L4.59119 21.0626V20.89L4.72982 20.9665ZM4.76927 17.7527V20.89H4.59119V17.7527L4.63064 17.6762L4.76927 17.7527ZM4.59119 17.7527V17.7036L4.63064 17.6762L4.59119 17.7527Z" fill="#D4AF37"/>
<path d="M50.5084 32.4578V15.1024H57.3557C58.672 15.1024 59.7935 15.3538 60.72 15.8566C61.6465 16.3537 62.3527 17.0458 62.8386 17.9328C63.3301 18.8141 63.5758 19.831 63.5758 20.9835C63.5758 22.136 63.3272 23.153 62.8301 24.0343C62.3329 24.9156 61.6126 25.602 60.6691 26.0936C59.7313 26.5851 58.5958 26.8308 57.2625 26.8308H52.8982V23.8902H56.6693C57.3755 23.8902 57.9574 23.7688 58.415 23.5258C58.8782 23.2773 59.2229 22.9355 59.4488 22.5004C59.6805 22.0598 59.7963 21.5541 59.7963 20.9835C59.7963 20.4073 59.6805 19.9045 59.4488 19.4751C59.2229 19.0401 58.8782 18.7039 58.415 18.4667C57.9517 18.2237 57.3642 18.1023 56.6523 18.1023H54.1778V32.4578H50.5084ZM66.6073 32.4578V19.4412H70.1072V21.7123H70.2428C70.4801 20.9044 70.8784 20.2943 71.4377 19.8819C71.997 19.4638 72.6411 19.2548 73.3699 19.2548C73.5506 19.2548 73.7455 19.2661 73.9546 19.2887C74.1636 19.3113 74.3472 19.3423 74.5054 19.3819V22.5852C74.3359 22.5343 74.1015 22.4891 73.802 22.4496C73.5026 22.41 73.2286 22.3903 72.98 22.3903C72.449 22.3903 71.9744 22.5061 71.5563 22.7377C71.1439 22.9637 70.8163 23.2801 70.5733 23.6868C70.336 24.0936 70.2174 24.5625 70.2174 25.0936V32.4578H66.6073ZM82.3631 32.712C81.0467 32.712 79.9083 32.4323 78.9479 31.873C77.9931 31.3081 77.2559 30.5228 76.7361 29.5172C76.2163 28.5059 75.9565 27.3336 75.9565 26.0003C75.9565 24.6557 76.2163 23.4806 76.7361 22.475C77.2559 21.4637 77.9931 20.6785 78.9479 20.1192C79.9083 19.5542 81.0467 19.2717 82.3631 19.2717C83.6794 19.2717 84.815 19.5542 85.7697 20.1192C86.7302 20.6785 87.4702 21.4637 87.99 22.475C88.5098 23.4806 88.7696 24.6557 88.7696 26.0003C88.7696 27.3336 88.5098 28.5059 87.99 29.5172C87.4702 30.5228 86.7302 31.3081 85.7697 31.873C84.815 32.4323 83.6794 32.712 82.3631 32.712ZM82.38 29.9155C82.9789 29.9155 83.4788 29.746 83.88 29.407C84.2811 29.0624 84.5833 28.5935 84.7867 28.0003C84.9957 27.4071 85.1003 26.7319 85.1003 25.9749C85.1003 25.2179 84.9957 24.5427 84.7867 23.9495C84.5833 23.3563 84.2811 22.8874 83.88 22.5428C83.4788 22.1982 82.9789 22.0259 82.38 22.0259C81.7755 22.0259 81.267 22.1982 80.8546 22.5428C80.4479 22.8874 80.14 23.3563 79.9309 23.9495C79.7275 24.5427 79.6258 25.2179 79.6258 25.9749C79.6258 26.7319 79.7275 27.4071 79.9309 28.0003C80.14 28.5935 80.4479 29.0624 80.8546 29.407C81.267 29.746 81.7755 29.9155 82.38 29.9155Z" fill="#042233"/>
<path d="M113.441 32.4578V19.4412H117.051V32.4578H113.441ZM115.254 17.7633C114.717 17.7633 114.257 17.5853 113.873 17.2294C113.494 16.8678 113.305 16.4357 113.305 15.9328C113.305 15.4357 113.494 15.0091 113.873 14.6532C114.257 14.2916 114.717 14.1109 115.254 14.1109C115.791 14.1109 116.248 14.2916 116.627 14.6532C117.011 15.0091 117.203 15.4357 117.203 15.9328C117.203 16.4357 117.011 16.8678 116.627 17.2294C116.248 17.5853 115.791 17.7633 115.254 17.7633ZM127.821 19.4412V22.153H119.982V19.4412H127.821ZM121.761 16.3227H125.372V28.4579C125.372 28.7912 125.422 29.0511 125.524 29.2375C125.626 29.4183 125.767 29.5454 125.948 29.6189C126.134 29.6923 126.349 29.729 126.592 29.729C126.761 29.729 126.931 29.7149 127.1 29.6867C127.27 29.6528 127.4 29.6273 127.49 29.6104L128.058 32.2968C127.877 32.3532 127.623 32.4182 127.295 32.4917C126.968 32.5708 126.569 32.6188 126.1 32.6357C125.23 32.6696 124.468 32.5538 123.812 32.2883C123.163 32.0227 122.657 31.6103 122.295 31.051C121.934 30.4917 121.756 29.7855 121.761 28.9324V16.3227ZM131.127 32.4578V19.4412H134.737V32.4578H131.127ZM132.94 17.7633C132.404 17.7633 131.943 17.5853 131.559 17.2294C131.18 16.8678 130.991 16.4357 130.991 15.9328C130.991 15.4357 131.18 15.0091 131.559 14.6532C131.943 14.2916 132.404 14.1109 132.94 14.1109C133.477 14.1109 133.935 14.2916 134.313 14.6532C134.697 15.0091 134.889 15.4357 134.889 15.9328C134.889 16.4357 134.697 16.8678 134.313 17.2294C133.935 17.5853 133.477 17.7633 132.94 17.7633ZM145.583 19.4412V22.153H137.549V19.4412H145.583ZM139.388 32.4578V18.5006C139.388 17.5571 139.572 16.7746 139.939 16.1532C140.312 15.5317 140.82 15.0656 141.465 14.7549C142.109 14.4442 142.84 14.2888 143.659 14.2888C144.213 14.2888 144.719 14.3312 145.176 14.4159C145.64 14.5007 145.984 14.577 146.21 14.6447L145.566 17.3565C145.425 17.3113 145.25 17.269 145.041 17.2294C144.837 17.1899 144.628 17.1701 144.414 17.1701C143.883 17.1701 143.512 17.2944 143.303 17.543C143.094 17.7859 142.99 18.1277 142.99 18.5684V32.4578H139.388ZM150.972 37.339C150.514 37.339 150.085 37.3022 149.684 37.2288C149.288 37.161 148.961 37.0734 148.701 36.9661L149.514 34.2713C149.938 34.4012 150.319 34.4718 150.658 34.4831C151.003 34.4944 151.299 34.4153 151.548 34.2458C151.802 34.0764 152.008 33.7882 152.167 33.3815L152.379 32.8306L147.709 19.4412H151.506L154.2 29.0002H154.336L157.056 19.4412H160.878L155.819 33.8645C155.576 34.565 155.246 35.1752 154.828 35.695C154.415 36.2204 153.893 36.6243 153.26 36.9068C152.627 37.1949 151.864 37.339 150.972 37.339Z" fill="#042233"/>
<path d="M99.4404 19.4412V22.153H91.4068V19.4412H99.4404ZM93.2457 32.4578V18.5006C93.2457 17.5571 93.4293 16.7746 93.7965 16.1532C94.1694 15.5317 94.6779 15.0656 95.3219 14.7549C95.966 14.4442 96.6976 14.2888 97.5168 14.2888C98.0704 14.2888 98.576 14.3312 99.0337 14.4159C99.4969 14.5007 99.8415 14.577 100.068 14.6447L99.4235 17.3565C99.2822 17.3113 99.1071 17.269 98.8981 17.2294C98.6947 17.1899 98.4856 17.1701 98.271 17.1701C97.7399 17.1701 97.3699 17.2944 97.1608 17.543C96.9518 17.7859 96.8473 18.1277 96.8473 18.5684V32.4578H93.2457ZM109.6 19.4412V22.153H101.567V19.4412H109.6ZM103.405 32.4578V18.5006C103.405 17.5571 103.589 16.7746 103.956 16.1532C104.329 15.5317 104.838 15.0656 105.482 14.7549C106.126 14.4442 106.857 14.2888 107.677 14.2888C108.23 14.2888 108.736 14.3312 109.193 14.4159C109.657 14.5007 110.001 14.577 110.227 14.6447L109.583 17.3565C109.442 17.3113 109.267 17.269 109.058 17.2294C108.854 17.1899 108.645 17.1701 108.431 17.1701C107.9 17.1701 107.53 17.2944 107.321 17.543C107.112 17.7859 107.007 18.1277 107.007 18.5684V32.4578H103.405Z" fill="#009933"/>
</svg>
