<svg width="51" height="47" viewBox="0 0 51 47" fill="none" xmlns="http://www.w3.org/2000/svg">
<path d="M49.2678 40.261C48.2632 43.0973 44.277 45.4495 41.0972 46.1365C38.9219 46.5998 36.0803 46.9692 26.5152 43.0036C14.2803 37.9348 6.40117 25.502 5.78708 24.6954C5.19885 23.8888 0.84314 18.1122 0.84314 12.1378C0.84314 6.16342 3.87716 3.25431 5.10013 2.00531C6.10454 0.980093 7.76466 0.511719 9.35713 0.511719C9.87234 0.511719 10.3353 0.53774 10.7517 0.558555C11.9748 0.610598 12.5887 0.683456 13.3955 2.61419C14.3999 5.03412 16.8459 11.0085 17.1373 11.6226C17.4338 12.2367 17.7306 13.0693 17.3143 13.876C16.924 14.7086 16.5805 15.0781 15.9662 15.7859C15.3523 16.4937 14.7694 17.0349 14.1554 17.7947C13.5933 18.4556 12.9582 19.1634 13.666 20.3864C14.3738 21.5833 16.8197 25.5749 20.4212 28.7807C25.0685 32.918 28.8361 34.24 30.184 34.8019C31.1885 35.2182 32.3853 35.1193 33.1191 34.3387C34.0508 33.3343 35.2009 31.669 36.3717 30.0297C37.2044 28.8535 38.2558 28.7078 39.3589 29.1243C40.483 29.5144 46.4315 32.4548 47.6543 33.0637C48.8774 33.6779 49.6841 33.9692 49.9807 34.4844C50.2722 34.9996 50.2722 37.4195 49.2678 40.261Z" fill="#CCCCCC"/>
</svg>
