<svg width="71" height="88" viewBox="0 0 71 88" fill="none" xmlns="http://www.w3.org/2000/svg">
<path fill-rule="evenodd" clip-rule="evenodd" d="M0.602417 30.8195L7.65734 25.928V19.2055H21.298V24.286L25.1689 26.2795V10.6733H38.808V24.4461L42.6789 21.195V0.460938H56.3195V9.73945L60.0287 6.62323L57.6357 3.44116L66.6253 4.60206L65.5034 13.9039L62.8332 10.3523L32.8567 35.5287L15.1575 26.4127L0.602417 36.5047V30.8195V30.8195ZM56.3195 20.3447V47.5308L50.7479 48.7194C48.7566 49.044 45.4027 49.1708 43.5231 48.3923C43.2443 48.2772 42.9635 48.1769 42.6789 48.0906V31.801L56.3195 20.3447ZM38.808 35.052V47.6696C38.0333 47.7106 37.2576 47.8141 36.486 47.9609L34.2811 47.0918C31.5472 46.014 28.1738 46.9381 25.1689 48.1403V36.0906L32.8567 40.0507L38.808 35.052V35.052ZM21.298 34.0971V49.8188C19.9761 50.3048 18.1795 50.3377 16.8893 49.8465L7.65734 45.577V36.1347L15.1575 30.9342L21.298 34.0971ZM15.6286 73.8959C16.4217 74.7165 17.6629 76.8769 15.1532 78.1899C12.6419 79.5024 10.9776 77.5598 11.2413 75.974C11.6601 73.4625 14.5615 72.7915 15.6286 73.8959ZM22.5281 79.0643C22.5281 79.0643 20.7826 82.2375 19.4355 82.4823C18.0872 82.7283 15.8939 81.9088 15.7617 80.5409C15.2374 75.0981 23.8353 75.4817 22.5281 79.0643V79.0643ZM28.0369 81.9088C28.0369 81.9088 25.5001 85.2313 24.7989 85.3678C24.0994 85.5042 21.6156 85.6679 21.0863 84.1644C20.5574 82.6613 21.6416 81.7038 22.2233 80.9105C22.8046 80.1168 24.6671 78.285 26.0677 78.8042C27.4681 79.3247 28.9882 80.555 28.0369 81.9088V81.9088ZM29.0817 82.223L26.4385 85.1627C26.4385 85.1627 25.7373 85.887 26.1868 86.2707C26.6363 86.6534 28.6582 88.2124 30.7324 86.517C32.8078 84.8205 31.5126 81.4979 29.0817 82.223V82.223ZM69.9144 46.345L51.0391 50.3726C51.0391 50.3726 45.9646 51.2125 42.9201 49.9525C39.8756 48.6921 36.2223 49.5327 32.5698 50.7923C28.9165 52.0527 25.4656 52.4729 23.4359 55.833C21.4063 59.1933 19.3766 61.9235 20.9998 62.7642C22.6246 63.6037 25.8719 62.9737 28.104 60.664C30.3365 58.3534 31.5402 57.9835 32.3661 57.9333C33.1921 57.8831 37.2382 56.8836 38.8616 59.1933C40.4852 61.5034 51.8515 73.6852 51.8515 73.6852C51.8515 73.6852 55.5036 70.7443 57.5333 70.1143C58.2705 69.8859 61.5814 69.0465 65.5945 68.0907C68.4343 62.5772 70.0439 56.2821 70.0439 49.5977C70.0439 48.5027 69.9998 47.418 69.9144 46.345V46.345Z" fill="#009933" stroke="#D4AF37" stroke-width="0.14484" stroke-miterlimit="10"/>
</svg>
