<svg width="29" height="36" viewBox="0 0 29 36" fill="none" xmlns="http://www.w3.org/2000/svg">
<path d="M12.9584 21.8893C11.6054 20.0877 10.3836 18.2144 9.29894 16.2774C8.85257 15.4797 8.39228 14.6566 8.0304 14.0092C7.61485 13.2665 7.76397 12.3762 8.40421 11.7698C9.22836 10.9905 10.3329 9.94549 10.9791 9.33476C11.3081 9.02284 11.4234 8.58161 11.2803 8.17533C10.7355 6.62709 9.37152 2.75476 8.78397 1.08507C8.609 0.587925 8.08608 0.248047 7.49356 0.248047C5.40186 0.276879 0.790982 0.963626 0.658761 6.56593C0.499696 13.3749 6.2449 21.5616 6.2449 21.5616C6.2449 21.5616 11.8897 30.713 18.6798 33.9956C24.2649 36.6971 27.2474 33.5308 28.3161 31.9511C28.6104 31.502 28.5378 30.9367 28.1381 30.5575C26.7901 29.2705 23.6565 26.2963 22.4039 25.1081C22.0758 24.7962 21.5827 24.6625 21.1105 24.7568C20.1879 24.9429 18.6122 25.2592 17.4351 25.4969C16.5115 25.683 15.5542 25.3457 15.0322 24.6502C14.4586 23.8875 13.6822 22.853 12.9584 21.8893Z" fill="#009933"/>
</svg>
