<svg width="57" height="46" viewBox="0 0 57 46" fill="none" xmlns="http://www.w3.org/2000/svg">
<path d="M34.8032 1.6675C31.677 2.67435 29.6271 5.4319 28.7887 7.57561C27.4285 11.0532 27.9645 14.7174 27.9645 14.7174C27.9645 14.7174 22.0853 14.994 15.5355 11.5305C8.98567 8.06699 4.68798 3.04778 4.68798 3.04778C4.68798 3.04778 3.01835 6.2804 3.24145 10.4205C3.46455 14.5606 8.0132 17.9172 8.0132 17.9172C8.0132 17.9172 7.14237 18.1694 5.50737 17.6512C3.87236 17.1329 3.11948 16.6624 3.11948 16.6624C3.11948 16.6624 3.17595 20.0293 5.29656 23.616C7.41717 27.2027 12.2795 27.7046 12.2795 27.7046C12.2795 27.7046 10.9755 28.2065 9.99629 28.3007C9.01704 28.3948 7.0721 28.2693 7.0721 28.2693C7.0721 28.2693 7.94444 31.6758 11.1786 33.8624C14.4127 36.0491 17.6124 35.8608 17.6124 35.8608C17.6124 35.8608 14.0849 38.785 9.98248 39.8953C5.88004 41.0055 0.923584 40.8173 0.923584 40.8173C0.923584 40.8173 5.79722 43.5412 8.53645 44.5947C11.2757 45.6483 17.7379 45.8365 17.7379 45.8365C17.7379 45.8365 26.6344 45.9996 33.2598 42.4987C39.8851 38.9978 44.3396 32.5356 44.3396 32.5356C44.3396 32.5356 47.319 29.378 49.0918 22.8634C50.8646 16.3487 50.6136 11.9569 50.6136 11.9569C50.6136 11.9569 52.4258 10.5816 53.4254 9.638C54.425 8.69439 56.1348 6.24752 56.1348 6.24752C56.1348 6.24752 53.9911 7.22702 52.6866 7.46669C51.3821 7.70636 49.8608 7.69055 49.8608 7.69055C49.8608 7.69055 51.7279 6.35644 52.6374 5.36088C53.5469 4.36532 54.5663 1.91846 54.5663 1.91846C54.5663 1.91846 51.4315 3.37579 50.3873 3.67844C49.343 3.9811 47.1629 4.36532 47.1629 4.36532C47.1629 4.36532 43.179 -1.03032 34.8032 1.6675Z" fill="#CCCCCC"/>
</svg>
