<svg width="37" height="37" viewBox="0 0 37 37" fill="none" xmlns="http://www.w3.org/2000/svg">
<path d="M36.7464 15.0825L36.8758 33.7565C36.8777 34.0316 36.8317 34.2962 36.7478 34.5395C36.4424 35.4267 35.6149 36.0548 34.6422 36.0457L3.05626 35.7443C2.07887 35.7353 1.24144 35.0831 0.927648 34.1848C0.841735 33.9424 0.795717 33.6829 0.792478 33.4123L0.66307 14.7462C0.659405 14.2058 0.837453 13.8815 1.13639 13.4912C1.49042 13.0288 14.3618 3.46442 17.7445 0.95415C18.2572 0.573535 18.8511 0.576399 19.3718 0.961354C22.8006 3.49776 35.8324 13.1487 36.1938 13.5808C36.5328 13.986 36.7403 14.5104 36.7464 15.0825ZM36.7464 15.0825L36.8758 33.7565C36.8777 34.0316 36.8317 34.2962 36.7478 34.5395C36.4424 35.4267 35.6149 36.0548 34.6422 36.0457L3.05626 35.7443C2.07887 35.7353 1.24144 35.0831 0.927648 34.1848C0.841735 33.9424 0.795717 33.6829 0.792478 33.4123L0.66307 14.7462C0.659405 14.2058 0.837453 13.8815 1.13639 13.4912C1.49042 13.0288 14.3618 3.46442 17.7445 0.95415C18.2572 0.573535 18.8511 0.576399 19.3718 0.961354C22.8006 3.49776 35.8324 13.1487 36.1938 13.5808C36.5328 13.986 36.7403 14.5104 36.7464 15.0825Z" fill="#009933"/>
</svg>
