<svg width="13" height="15" viewBox="0 0 13 15" fill="none" xmlns="http://www.w3.org/2000/svg">
<path d="M5.57629 9.1461C5.01375 8.39705 4.50576 7.61821 4.05481 6.81286C3.86923 6.4812 3.67785 6.13901 3.5274 5.86983C3.35463 5.56106 3.41663 5.19089 3.68281 4.93879C4.02547 4.61476 4.48468 4.18029 4.75335 3.92637C4.89016 3.79669 4.93811 3.61324 4.87859 3.44432C4.65208 2.80062 4.08499 1.19064 3.84071 0.496444C3.76796 0.289747 3.55055 0.148438 3.3042 0.148438C2.43455 0.160425 0.517503 0.44595 0.46253 2.77519C0.396397 5.6061 2.78505 9.00987 2.78505 9.00987C2.78505 9.00987 5.13196 12.8147 7.95503 14.1795C10.2771 15.3027 11.5171 13.9862 11.9615 13.3294C12.0838 13.1427 12.0536 12.9077 11.8875 12.75C11.327 12.2149 10.0242 10.9784 9.50338 10.4844C9.36698 10.3547 9.16196 10.2991 8.96563 10.3383C8.58206 10.4157 7.92692 10.5472 7.43754 10.646C7.05355 10.7234 6.65551 10.5832 6.43851 10.294C6.20002 9.97688 5.8772 9.54678 5.57629 9.1461Z" fill="#009933"/>
</svg>
