<svg width="23" height="27" viewBox="0 0 23 27" fill="none" xmlns="http://www.w3.org/2000/svg">
<path d="M18.5545 9.94956H16.1425V2.36464C16.1425 1.5303 15.4598 0.847656 14.6255 0.847656H8.55757C7.72323 0.847656 7.04059 1.5303 7.04059 2.36464V9.94956H4.62859C3.27847 9.94956 2.59583 11.5879 3.55153 12.5436L10.5145 19.5066C11.1061 20.0982 12.0618 20.0982 12.6534 19.5066L19.6164 12.5436C20.5721 11.5879 19.9046 9.94956 18.5545 9.94956ZM0.972656 25.1194C0.972656 25.9537 1.6553 26.6364 2.48964 26.6364H20.6934C21.5278 26.6364 22.2104 25.9537 22.2104 25.1194C22.2104 24.285 21.5278 23.6024 20.6934 23.6024H2.48964C1.6553 23.6024 0.972656 24.285 0.972656 25.1194Z" fill="white"/>
</svg>
