<svg width="22" height="20" viewBox="0 0 22 20" fill="none" xmlns="http://www.w3.org/2000/svg">
<path d="M20.7503 17.1543C20.3327 18.3335 18.6753 19.3115 17.3533 19.5971C16.4489 19.7897 15.2674 19.9433 11.2906 18.2946C6.20374 16.1871 2.9279 11.018 2.67258 10.6827C2.42802 10.3473 0.617065 7.94557 0.617065 5.46164C0.617065 2.97771 1.8785 1.7682 2.38697 1.24891C2.80457 0.822663 3.49479 0.62793 4.15688 0.62793C4.37109 0.62793 4.56359 0.638748 4.73669 0.647403C5.24522 0.66904 5.50047 0.699332 5.83592 1.50207C6.25351 2.50819 7.27045 4.99212 7.39162 5.24743C7.51488 5.50275 7.63828 5.84894 7.46518 6.18432C7.30291 6.53051 7.1601 6.68413 6.90472 6.9784C6.64947 7.27266 6.40713 7.49769 6.15182 7.81359C5.91814 8.08838 5.6541 8.38264 5.94836 8.89111C6.24262 9.38876 7.25956 11.0483 8.75691 12.3812C10.6891 14.1013 12.2556 14.651 12.816 14.8846C13.2336 15.0577 13.7312 15.0166 14.0363 14.692C14.4236 14.2744 14.9018 13.582 15.3886 12.9005C15.7348 12.4115 16.1719 12.3509 16.6306 12.524C17.0979 12.6862 19.5711 13.9087 20.0795 14.1619C20.588 14.4173 20.9234 14.5384 21.0467 14.7526C21.1679 14.9668 21.1679 15.9729 20.7503 17.1543Z" fill="#CCCCCC"/>
</svg>
