<svg width="34" height="34" viewBox="0 0 34 34" fill="none" xmlns="http://www.w3.org/2000/svg">
<path fill-rule="evenodd" clip-rule="evenodd" d="M17.0727 33.3768C21.3666 33.3768 25.4847 31.671 28.5209 28.6347C31.5572 25.5984 33.263 21.4804 33.263 17.1864C33.263 12.8925 31.5572 8.77441 28.5209 5.73813C25.4847 2.70186 21.3666 0.996094 17.0727 0.996094C12.7787 0.996094 8.66064 2.70186 5.62436 5.73813C2.58809 8.77441 0.882324 12.8925 0.882324 17.1864C0.882324 21.4804 2.58809 25.5984 5.62436 28.6347C8.66064 31.671 12.7787 33.3768 17.0727 33.3768V33.3768ZM24.5748 14.5697C24.9435 14.188 25.1475 13.6768 25.1429 13.1461C25.1383 12.6155 24.9254 12.1079 24.5502 11.7327C24.175 11.3574 23.6674 11.1446 23.1367 11.14C22.6061 11.1354 22.0949 11.3394 21.7132 11.708L15.0489 18.3724L12.4321 15.7556C12.0504 15.387 11.5392 15.183 11.0086 15.1876C10.4779 15.1922 9.97034 15.405 9.59511 15.7803C9.21989 16.1555 9.00705 16.6631 9.00243 17.1937C8.99782 17.7243 9.20181 18.2356 9.57046 18.6172L13.618 22.6648C13.9976 23.0442 14.5122 23.2574 15.0489 23.2574C15.5855 23.2574 16.1002 23.0442 16.4797 22.6648L24.5748 14.5697V14.5697Z" fill="#4ED273"/>
</svg>
