<svg width="37" height="24" viewBox="0 0 37 24" fill="none" xmlns="http://www.w3.org/2000/svg">
<path d="M36.6532 21.5786C36.3486 22.4624 35.5229 23.0881 34.5523 23.0791L3.03579 22.7805C2.06055 22.7716 1.22493 22.1219 0.911782 21.2271L17.3586 10.3145C17.3586 10.3145 18.1184 9.82526 18.7442 9.83824C19.3699 9.85121 20.0387 10.3717 20.0387 10.3717L36.6532 21.5786ZM36.6532 21.5786C36.3486 22.4624 35.5229 23.0881 34.5523 23.0791L3.03579 22.7805C2.06055 22.7716 1.22493 22.1219 0.911782 21.2271L17.3586 10.3145C17.3586 10.3145 18.1184 9.82526 18.7442 9.83824C19.3699 9.85121 20.0387 10.3717 20.0387 10.3717L36.6532 21.5786ZM1.82591 0.344303C1.82557 0.344665 1.82421 0.346111 1.82326 0.34698C1.82326 0.34698 1.82307 0.347626 1.82321 0.347911C1.8233 0.348411 1.82323 0.348626 1.82323 0.348626L1.82881 0.348564C1.82881 0.348564 1.82902 0.348633 1.829 0.347918C1.82907 0.347703 1.82899 0.347203 1.82899 0.347203C1.82812 0.346211 1.82654 0.344511 1.82612 0.344373L1.82591 0.344303ZM1.82591 0.344303C1.82557 0.344665 1.82421 0.346111 1.82326 0.34698C1.82326 0.34698 1.82307 0.347626 1.82321 0.347911C1.8233 0.348411 1.82323 0.348626 1.82323 0.348626L1.82881 0.348564C1.82881 0.348564 1.82902 0.348633 1.829 0.347918C1.82907 0.347703 1.82899 0.347203 1.82899 0.347203C1.82812 0.346211 1.82654 0.344511 1.82612 0.344373L1.82591 0.344303Z" fill="#5997EE"/>
</svg>
