<svg width="15" height="9" viewBox="0 0 15 9" fill="none" xmlns="http://www.w3.org/2000/svg">
<path d="M14.9045 4.15711C14.8933 4.74548 14.6859 5.31305 14.3158 5.76773C13.8806 6.31407 13.3374 6.76261 12.721 7.08481C11.9751 7.48927 11.1775 7.7881 10.3509 7.97294C8.44179 8.40435 6.46202 8.40435 4.55275 7.97294C3.72614 7.7881 2.92866 7.48927 2.18285 7.08481C1.56621 6.76261 1.02302 6.31398 0.587889 5.76773C-0.197265 4.84038 -0.197265 3.47368 0.587889 2.54632C1.02302 2.00007 1.56621 1.55144 2.18285 1.22934C2.92866 0.82487 3.72614 0.526039 4.55275 0.341198C6.46194 -0.0902952 8.44171 -0.0902952 10.3509 0.341198C11.1775 0.526039 11.9751 0.82487 12.721 1.22934C13.3374 1.55144 13.8806 2.00016 14.3158 2.54632C14.6859 3.00101 14.8933 3.56866 14.9045 4.15711Z" fill="#E8EDF7"/>
</svg>
