<svg width="15" height="10" viewBox="0 0 15 10" fill="none" xmlns="http://www.w3.org/2000/svg">
<path d="M14.9323 8.84334C14.8057 9.21079 14.4624 9.47097 14.0589 9.46722L0.95539 9.34307C0.549917 9.33937 0.202495 9.06925 0.0723011 8.69721L6.91031 4.16014C6.91031 4.16014 7.22623 3.95673 7.48639 3.96212C7.74655 3.96752 8.02459 4.18393 8.02459 4.18393L14.9323 8.84334ZM14.9323 8.84334C14.8057 9.21079 14.4624 9.47097 14.0589 9.46722L0.95539 9.34307C0.549917 9.33937 0.202495 9.06925 0.0723011 8.69721L6.91031 4.16014C6.91031 4.16014 7.22623 3.95673 7.48639 3.96212C7.74655 3.96752 8.02459 4.18393 8.02459 4.18393L14.9323 8.84334ZM0.452362 0.0148785C0.452221 0.0150288 0.451657 0.01563 0.451261 0.0159914C0.451261 0.0159914 0.451181 0.01626 0.451242 0.0163783C0.451276 0.0165861 0.45125 0.0166757 0.45125 0.0166757L0.45357 0.0166501C0.45357 0.0166501 0.453658 0.0166788 0.45365 0.0163815C0.453676 0.016292 0.453642 0.0160841 0.453642 0.0160841C0.453282 0.0156715 0.452626 0.014965 0.45245 0.0149073L0.452362 0.0148785ZM0.452362 0.0148785C0.452221 0.0150288 0.451657 0.01563 0.451261 0.0159914C0.451261 0.0159914 0.451181 0.01626 0.451242 0.0163783C0.451276 0.0165861 0.45125 0.0166757 0.45125 0.0166757L0.45357 0.0166501C0.45357 0.0166501 0.453658 0.0166788 0.45365 0.0163815C0.453676 0.016292 0.453642 0.0160841 0.453642 0.0160841C0.453282 0.0156715 0.452626 0.014965 0.45245 0.0149073L0.452362 0.0148785Z" fill="#5997EE"/>
</svg>
