<svg width="98" height="96" viewBox="0 0 98 96" fill="none" xmlns="http://www.w3.org/2000/svg">
<path d="M97.1773 21.6593C97.1773 10.5977 90.8816 1.61144 83.1182 1.61144C72.0463 0.949646 60.7178 0.666016 49.1231 0.666016C37.5641 0.666016 26.2 0.949646 15.128 1.61144C7.36793 1.61144 1.06894 10.5977 1.06894 21.6593C0.614372 30.4045 0.387086 39.1922 0.419556 47.9374C0.387086 56.6779 0.614372 65.4799 1.06894 74.2203C1.06894 85.3339 7.36793 94.3107 15.128 94.3107C26.2 94.93 37.5641 95.2514 49.1231 95.2089C60.6821 95.2514 72.0463 94.93 83.1182 94.3107C90.8816 94.3107 97.1773 85.3339 97.1773 74.2203C97.6351 65.4799 97.8592 56.6779 97.8267 47.9374C97.8592 39.1922 97.6351 30.4045 97.1773 21.6593Z" fill="#F44336"/>
</svg>
