<svg width="37" height="42" viewBox="0 0 37 42" fill="none" xmlns="http://www.w3.org/2000/svg">
<path d="M29.5605 29.4472L21.3824 37.6253C21.0248 37.9833 20.6001 38.2673 20.1326 38.461C19.6651 38.6548 19.164 38.7545 18.658 38.7545C18.152 38.7545 17.6509 38.6548 17.1834 38.461C16.7159 38.2673 16.2912 37.9833 15.9336 37.6253L7.75362 29.4472C5.59727 27.2907 4.12879 24.5433 3.5339 21.5522C2.939 18.5612 3.2444 15.4609 4.41148 12.6434C5.57856 9.82597 7.5549 7.41784 10.0906 5.72358C12.6263 4.02931 15.6074 3.125 18.657 3.125C21.7067 3.125 24.6878 4.02931 27.2235 5.72358C29.7592 7.41784 31.7355 9.82597 32.9026 12.6434C34.0697 15.4609 34.3751 18.5612 33.7802 21.5522C33.1853 24.5433 31.7168 27.2907 29.5605 29.4472V29.4472Z" stroke="black" stroke-width="4.81855" stroke-linecap="round" stroke-linejoin="round"/>
</svg>
