<svg width="59" height="46" viewBox="0 0 59 46" fill="none" xmlns="http://www.w3.org/2000/svg">
<path fill-rule="evenodd" clip-rule="evenodd" d="M1.74941 0.447266L23.2737 10.4023C23.2737 10.4023 26.2593 11.578 29.2456 10.2374C31.7034 9.13473 37.2759 6.31052 40.7027 7.66204C40.1431 7.83177 39.5925 8.01392 39.0554 8.19892C35.1756 9.53719 31.4258 10.0247 29.0591 13.9427C28.2649 15.2569 27.3889 16.5642 26.6765 17.9238C26.0282 19.1649 25.3922 20.7235 26.0895 22.0929C26.3535 22.6122 26.7688 23.0054 27.2737 23.2666C30.1321 24.7453 34.155 23.0219 36.2521 20.8518C36.9323 20.148 38.4036 18.675 39.4618 18.6103C40.7803 18.5301 43.594 17.8254 44.5476 19.1825C45.2619 20.1974 46.2085 21.2359 47.0267 22.1672C48.3168 23.6387 49.6287 25.0916 50.9437 26.5382C53.175 28.9908 55.4222 31.4289 57.683 33.8522L58.4008 34.6218C59.2349 35.2779 57.4984 39.2489 54.4593 36.5455L47.0061 28.3692C47.0061 28.3692 46.3861 27.8359 46.0413 28.1088C45.6978 28.382 46.0413 28.6553 46.3589 29.0249L52.7267 36.1759C52.7267 36.1759 54.3391 37.7076 52.8861 39.7043C51.4319 41.7014 49.5818 40.6886 48.4192 39.787L43.397 34.6727C43.397 34.6727 42.9216 34.125 42.564 34.3851C42.564 34.3851 42.2469 34.7137 42.7623 35.1916L47.8756 40.4298C47.8756 40.4298 48.7217 41.7966 47.7573 43.0682C47.7573 43.0682 46.4349 44.8871 44.4665 43.3282C42.497 41.7697 38.9018 37.9692 38.9018 37.9692C38.9018 37.9692 38.2147 37.4074 37.9107 37.6265C37.6071 37.8456 38.1088 38.2554 38.3069 38.46C38.5059 38.6658 43.4994 43.4791 43.4994 43.4791C43.4994 43.4791 43.8945 44.217 43.2469 44.7093C42.668 45.1496 40.9226 45.5793 40.0897 44.9979C41.0556 42.5052 39.5389 39.5045 36.8903 39.4327C36.6216 38.2633 35.6557 37.2449 34.5113 36.6281C34.2221 36.4724 33.9219 36.336 33.616 36.2233C32.9183 35.9641 32.1858 35.9934 31.4758 36.2076L31.0182 36.0455L30.9739 35.9464C30.041 33.977 27.5437 33.4798 25.5753 33.8414L24.9517 33.4974C24.7039 32.8702 24.3099 32.2604 23.7767 31.7082C22.7014 30.5954 21.0048 30.4835 19.6363 31.0004C19.0718 31.2138 18.5645 31.5244 18.1345 31.9153L4.11256 24.3814C2.06702 19.5497 0.932739 14.2108 0.932739 8.59783C0.932739 5.80336 1.21463 3.07753 1.74941 0.447266V0.447266Z" fill="#052638" stroke="#D4AF37" stroke-width="0.14484" stroke-miterlimit="10"/>
</svg>
