<svg width="34" height="24" viewBox="0 0 34 24" fill="none" xmlns="http://www.w3.org/2000/svg">
<path d="M33.124 2.52909L33.3257 21.4421C33.3351 22.3166 32.6491 23.0164 31.7939 23.0055L2.10501 22.6483C1.24982 22.6374 0.548846 21.9195 0.539501 21.045L0.337768 2.13221C0.328424 1.25773 1.01446 0.557641 1.86964 0.568555L31.5588 0.925877C32.4139 0.936783 33.1147 1.65461 33.124 2.52909ZM33.124 2.52909L33.3257 21.4421C33.3351 22.3166 32.6491 23.0164 31.7939 23.0055L2.10501 22.6483C1.24982 22.6374 0.548846 21.9195 0.539501 21.045L0.337768 2.13221C0.328424 1.25773 1.01446 0.557641 1.86964 0.568555L31.5588 0.925877C32.4139 0.936783 33.1147 1.65461 33.124 2.52909Z" fill="#ECF2FB"/>
</svg>
