<svg width="22" height="27" viewBox="0 0 22 27" fill="none" xmlns="http://www.w3.org/2000/svg">
<path d="M18.0932 9.97983H15.6812V2.39491C15.6812 1.56057 14.9985 0.87793 14.1642 0.87793H8.09627C7.26193 0.87793 6.57928 1.56057 6.57928 2.39491V9.97983H4.16728C2.81717 9.97983 2.13452 11.6182 3.09022 12.5739L10.0532 19.5368C10.6448 20.1284 11.6005 20.1284 12.1921 19.5368L19.1551 12.5739C20.1108 11.6182 19.4433 9.97983 18.0932 9.97983ZM0.511353 25.1497C0.511353 25.984 1.19399 26.6666 2.02834 26.6666H20.2321C21.0665 26.6666 21.7491 25.984 21.7491 25.1497C21.7491 24.3153 21.0665 23.6327 20.2321 23.6327H2.02834C1.19399 23.6327 0.511353 24.3153 0.511353 25.1497Z" fill="white"/>
</svg>
