<svg width="22" height="27" viewBox="0 0 22 27" fill="none" xmlns="http://www.w3.org/2000/svg">
<path d="M17.5824 9.8392H15.1704V2.25429C15.1704 1.41995 14.4877 0.737305 13.6534 0.737305H7.58546C6.75112 0.737305 6.06848 1.41995 6.06848 2.25429V9.8392H3.65648C2.30636 9.8392 1.62372 11.4775 2.57942 12.4332L9.54237 19.3962C10.134 19.9878 11.0897 19.9878 11.6813 19.3962L18.6443 12.4332C19.6 11.4775 18.9325 9.8392 17.5824 9.8392ZM0.000549316 25.009C0.000549316 25.8434 0.683192 26.526 1.51753 26.526H19.7213C20.5557 26.526 21.2383 25.8434 21.2383 25.009C21.2383 24.1747 20.5557 23.4921 19.7213 23.4921H1.51753C0.683192 23.4921 0.000549316 24.1747 0.000549316 25.009Z" fill="white"/>
</svg>
