<svg width="37" height="24" viewBox="0 0 37 24" fill="none" xmlns="http://www.w3.org/2000/svg">
<path d="M36.7091 2.29323L36.8374 20.7722C36.8393 21.047 36.7933 21.3112 36.7095 21.5543C36.4044 22.4403 35.5776 23.0676 34.6058 23.0585L3.04824 22.7578C2.07172 22.7488 1.23504 22.0975 0.921523 21.2004C0.835686 20.9582 0.789706 20.6991 0.786468 20.4289L0.658329 1.95775C0.649861 0.682158 1.65403 0.276317 2.89753 1.06879L18.5682 11.3061L34.4551 1.36952C35.626 0.660888 36.6952 1.02013 36.7091 2.29323ZM36.7091 2.29323L36.8374 20.7722C36.8393 21.047 36.7933 21.3112 36.7095 21.5543C36.4044 22.4403 35.5776 23.0676 34.6058 23.0585L3.04824 22.7578C2.07172 22.7488 1.23504 22.0975 0.921523 21.2004C0.835686 20.9582 0.789706 20.6991 0.786468 20.4289L0.658329 1.95775C0.649861 0.682158 1.65403 0.276317 2.89753 1.06879L18.5682 11.3061L34.4551 1.36952C35.626 0.660888 36.6952 1.02013 36.7091 2.29323ZM36.7093 21.5144C36.4045 22.4237 35.5776 23.0676 34.6058 23.0585L3.0483 22.7576C2.07179 22.7486 1.23479 22.0803 0.921223 21.16L17.3879 9.93069C17.3879 9.93069 18.1487 9.42719 18.7752 9.44044C19.4017 9.45369 20.0712 9.98905 20.0712 9.98905L36.7093 21.5144ZM36.7093 21.5144C36.4045 22.4237 35.5776 23.0676 34.6058 23.0585L3.0483 22.7576C2.07179 22.7486 1.23479 22.0803 0.921223 21.16L17.3879 9.93069C17.3879 9.93069 18.1487 9.42719 18.7752 9.44044C19.4017 9.45369 20.0712 9.98905 20.0712 9.98905L36.7093 21.5144ZM36.7095 21.5543C36.4044 22.4403 35.5776 23.0676 34.6058 23.0585L3.04824 22.7578C2.07172 22.7488 1.23504 22.0975 0.921523 21.2004L17.3902 10.261C17.3902 10.261 18.151 9.77058 18.7776 9.78361C19.4042 9.79665 20.0737 10.3185 20.0737 10.3185L36.7095 21.5543ZM36.7095 21.5543C36.4044 22.4403 35.5776 23.0676 34.6058 23.0585L3.04824 22.7578C2.07172 22.7488 1.23504 22.0975 0.921523 21.2004L17.3902 10.261C17.3902 10.261 18.151 9.77058 18.7776 9.78361C19.4042 9.79665 20.0737 10.3185 20.0737 10.3185L36.7095 21.5543ZM1.83767 0.265041C1.83733 0.265403 1.83597 0.266853 1.83502 0.267724C1.83502 0.267724 1.83483 0.268372 1.83497 0.268657C1.83506 0.269158 1.83499 0.269374 1.83499 0.269374L1.84058 0.269313C1.84058 0.269313 1.84079 0.269382 1.84077 0.268665C1.84084 0.268449 1.84075 0.267948 1.84075 0.267948C1.83989 0.266953 1.83831 0.265249 1.83788 0.26511L1.83767 0.265041ZM1.83767 0.265041C1.83733 0.265403 1.83597 0.266853 1.83502 0.267724C1.83502 0.267724 1.83483 0.268372 1.83497 0.268657C1.83506 0.269158 1.83499 0.269374 1.83499 0.269374L1.84058 0.269313C1.84058 0.269313 1.84079 0.269382 1.84077 0.268665C1.84084 0.268449 1.84075 0.267948 1.84075 0.267948C1.83989 0.266953 1.83831 0.265249 1.83788 0.26511L1.83767 0.265041Z" fill="#009933"/>
</svg>
