<svg width="25" height="16" viewBox="0 0 25 16" fill="none" xmlns="http://www.w3.org/2000/svg">
<path d="M1.03604 0.617671L11.622 0.774144M1.07168 4.17241L23.6801 4.46935L1.07168 4.17241ZM1.07168 4.17241L23.6801 4.46935L1.07168 4.17241ZM1.03604 0.617671L11.622 0.774144L1.03604 0.617671ZM1.03604 0.617671L11.622 0.774144L1.03604 0.617671ZM1.38703 14.8824L23.9937 15.1783L1.38703 14.8824ZM1.34975 11.3279L11.9373 11.4844L1.34975 11.3279ZM1.28224 11.3126L23.8889 11.6085L1.28224 11.3126ZM1.24496 7.75804L11.8325 7.91455L1.24496 7.75804ZM1.17744 7.74278L23.7841 8.03868L1.17744 7.74278ZM1.14017 4.18822L11.7277 4.34473L1.14017 4.18822ZM1.07168 4.17241L23.6801 4.46935L1.07168 4.17241Z" stroke="#BFCEE2" stroke-width="1.02569" stroke-linecap="round" stroke-linejoin="round"/>
</svg>
