<svg width="22" height="26" viewBox="0 0 22 26" fill="none" xmlns="http://www.w3.org/2000/svg">
<path d="M18.2768 9.31088H15.8648V1.72597C15.8648 0.891627 15.1821 0.208984 14.3478 0.208984H8.27986C7.44552 0.208984 6.76288 0.891627 6.76288 1.72597V9.31088H4.35088C3.00076 9.31088 2.31812 10.9492 3.27382 11.9049L10.2368 18.8679C10.8284 19.4595 11.7841 19.4595 12.3757 18.8679L19.3387 11.9049C20.2944 10.9492 19.6269 9.31088 18.2768 9.31088ZM0.694946 24.4807C0.694946 25.3151 1.37759 25.9977 2.21193 25.9977H20.4157C21.2501 25.9977 21.9327 25.3151 21.9327 24.4807C21.9327 23.6464 21.2501 22.9637 20.4157 22.9637H2.21193C1.37759 22.9637 0.694946 23.6464 0.694946 24.4807Z" fill="white"/>
</svg>
