<svg width="36" height="35" viewBox="0 0 36 35" fill="none" xmlns="http://www.w3.org/2000/svg">
<path d="M19.7592 24.4166H18.0727V17.6706H16.3862M18.0727 10.9247H18.0896M33.2512 17.6706C33.2512 19.6639 32.8586 21.6376 32.0958 23.4792C31.333 25.3207 30.2149 26.9939 28.8055 28.4034C27.396 29.8128 25.7228 30.9309 23.8813 31.6937C22.0397 32.4565 20.066 32.8491 18.0727 32.8491C16.0795 32.8491 14.1057 32.4565 12.2642 31.6937C10.4227 30.9309 8.7494 29.8128 7.33995 28.4034C5.9305 26.9939 4.81246 25.3207 4.04968 23.4792C3.28689 21.6376 2.89429 19.6639 2.89429 17.6706C2.89429 13.6451 4.49344 9.78436 7.33995 6.93785C10.1865 4.09134 14.0472 2.49219 18.0727 2.49219C22.0983 2.49219 25.959 4.09134 28.8055 6.93785C31.652 9.78436 33.2512 13.6451 33.2512 17.6706Z" stroke="black" stroke-width="3.85484" stroke-linecap="round" stroke-linejoin="round"/>
</svg>
