<svg width="22" height="27" viewBox="0 0 22 27" fill="none" xmlns="http://www.w3.org/2000/svg">
<path d="M18.1902 9.53354H15.7782V1.94862C15.7782 1.11428 15.0956 0.431641 14.2612 0.431641H8.19331C7.35897 0.431641 6.67633 1.11428 6.67633 1.94862V9.53354H4.26433C2.91421 9.53354 2.23157 11.1719 3.18727 12.1276L10.1502 19.0905C10.7418 19.6822 11.6975 19.6822 12.2892 19.0905L19.2521 12.1276C20.2078 11.1719 19.5403 9.53354 18.1902 9.53354ZM0.608398 24.7034C0.608398 25.5377 1.29104 26.2204 2.12538 26.2204H20.3292C21.1635 26.2204 21.8462 25.5377 21.8462 24.7034C21.8462 23.869 21.1635 23.1864 20.3292 23.1864H2.12538C1.29104 23.1864 0.608398 23.869 0.608398 24.7034Z" fill="white"/>
</svg>
