<svg width="45" height="16" viewBox="0 0 45 16" fill="none" xmlns="http://www.w3.org/2000/svg">
<path d="M11.2726 2.0275C14.9549 1.20186 18.7204 0.81589 22.4919 0.877447C29.1993 0.877447 37.4949 1.58867 42.3161 6.37159C43.3208 7.27175 43.9465 8.52607 44.0645 9.87733C44.0966 11.0439 43.5846 12.1585 43.326 13.3018C43.1836 13.931 43.0555 14.6611 42.4406 14.987C41.9134 15.1861 41.3358 15.2044 40.7973 15.0389L36.7608 14.2584C35.6847 14.0507 35.1057 13.843 34.0295 13.6345C33.4289 13.5916 32.8625 13.336 32.4301 12.9127C32.1706 12.4567 32.1017 11.9149 32.2386 11.4075L32.5426 9.22485C32.6871 8.67962 32.6211 8.09927 32.3579 7.60144C31.9986 7.08367 30.7891 6.86012 30.122 6.74417C25.0234 5.93549 19.8299 5.94819 14.7352 6.78177C13.7067 6.93907 12.2289 7.54415 12.3675 8.61738L12.7916 11.9011C12.8784 12.6725 12.3527 13.3779 11.5947 13.5072L8.10082 14.2809L3.60087 15.1487C2.82838 15.31 2.06366 14.8417 1.84804 14.0755L0.994583 10.7753C0.757938 9.88816 0.883309 8.94239 1.34258 8.1494C2.40389 6.34379 4.90575 3.57571 11.2726 2.0275Z" fill="#009933"/>
</svg>
